SplineFontDB: 3.2
FontName: Sassoon.Primary
FullName: Sassoon.Primary
FamilyName: Sassoon
Weight: Regular
Copyright: (c) RISC OS Developments Ltd, released under Apache License 2.0
Version: 1
ItalicAngle: 0
UnderlinePosition: 0
UnderlineWidth: 0
Ascent: 800
Descent: 200
InvalidEm: 0
LayerCount: 2
Layer: 0 0 "Back" 1
Layer: 1 0 "Fore" 0
OS2Version: 0
OS2_WeightWidthSlopeOnly: 0
OS2_UseTypoMetrics: 0
CreationTime: 1622737881
ModificationTime: 1622737883
OS2TypoAscent: 0
OS2TypoAOffset: 1
OS2TypoDescent: 0
OS2TypoDOffset: 1
OS2TypoLinegap: 0
OS2WinAscent: 0
OS2WinAOffset: 1
OS2WinDescent: 0
OS2WinDOffset: 1
HheadAscent: 0
HheadAOffset: 1
HheadDescent: 0
HheadDOffset: 1
OS2Vendor: 'PfEd'
Lookup: 258 0 0 "'kern' Horizontal Kerning in Latin lookup 0" { "'kern' Horizontal Kerning in Latin lookup 0 subtable"  } ['kern' ('latn' <'dflt' > ) ]
DEI: 91125
Encoding: Custom
UnicodeInterp: none
NameList: AGL For New Fonts
DisplaySize: -24
AntiAlias: 1
FitToEm: 0
BeginChars: 416 384

StartChar: uni0007
Encoding: 7 7 6
Width: 595
VWidth: 0
Flags: HMW
LayerCount: 2
Fore
SplineSet
447 -74 m 0
 453 56 l 0
 386 -20 228 -45 135 48 c 0
 31 152 29 429 153 553 c 0
 264 664 478 657 544 534 c 0
 490 492 l 0
 432 586 291 590 215 514 c 0
 119 418 113 177 194 96 c 0
 257 33 360 47 422 109 c 0
 453 140 456 192 459 254 c 0
 352 254 l 0
 355 323 l 0
 538 323 l 0
 517 -74 l 0
 447 -74 l 0
EndSplineSet
EndChar

StartChar: uni0009
Encoding: 9 9 8
Width: 242
VWidth: 0
Flags: HMW
LayerCount: 2
Fore
SplineSet
158 0 m 0
 83 0 l 0
 116 621 l 0
 191 621 l 0
 158 0 l 0
EndSplineSet
EndChar

StartChar: uni000A
Encoding: 10 10 9
Width: 403
VWidth: 0
Flags: HMW
LayerCount: 2
Fore
SplineSet
281 28 m 0
 224 -29 112 -22 64 26 c 0
 21 69 20 137 25 178 c 0
 94 178 l 0
 93 156 83 51 173 51 c 0
 237 51 252 106 256 183 c 0
 279 621 l 0
 354 621 l 0
 330 170 l 0
 327 121 317 64 281 28 c 0
EndSplineSet
EndChar

StartChar: exclam
Encoding: 33 33 32
Width: 258
VWidth: 0
Flags: HMW
LayerCount: 2
Fore
SplineSet
166 71 m 0
 185 52 185 20 166 1 c 0
 147 -17 115 -17 96 1 c 0
 77 20 77 52 96 71 c 0
 115 90 147 90 166 71 c 0
112 159 m 0
 123 621 l 0
 203 621 l 0
 167 159 l 0
 112 159 l 0
EndSplineSet
EndChar

StartChar: quotedbl
Encoding: 34 34 33
Width: 258
VWidth: 0
Flags: HMW
LayerCount: 2
Fore
SplineSet
128 370 m 0
 65 433 111 567 198 631 c 0
 226 601 l 0
 190 568 165 523 165 484 c 0
 165 424 207 419 207 395 c 0
 207 366 162 336 128 370 c 0
EndSplineSet
EndChar

StartChar: numbersign
Encoding: 35 35 34
Width: 258
VWidth: 0
Flags: HMW
LayerCount: 2
Fore
SplineSet
181 616 m 0
 244 553 198 419 111 355 c 0
 83 385 l 0
 119 418 144 463 144 502 c 0
 144 562 102 567 102 591 c 0
 102 620 147 650 181 616 c 0
EndSplineSet
EndChar

StartChar: quotesingle
Encoding: 39 39 38
Width: 500
VWidth: 0
Flags: HMW
LayerCount: 2
Fore
SplineSet
482 380 m 0
 482 316 469 234 380 234 c 0
 295 234 212 342 155 342 c 0
 120 342 96 306 96 253 c 0
 59 253 l 0
 61 348 97 399 164 399 c 0
 234 399 326 287 390 287 c 0
 427 287 443 314 446 380 c 0
 482 380 l 0
EndSplineSet
EndChar

StartChar: parenleft
Encoding: 40 40 39
Width: 355
VWidth: 0
Flags: HMW
LayerCount: 2
Fore
SplineSet
374 687 m 0
 371 621 l 0
 317 609 289 591 257 528 c 0
 198 409 180 176 238 60 c 0
 264 9 296 -7 335 -13 c 0
 332 -77 l 0
 262 -69 204 -35 167 39 c 0
 111 150 115 405 186 547 c 0
 228 631 292 676 374 687 c 0
EndSplineSet
EndChar

StartChar: parenright
Encoding: 41 41 40
Width: 355
VWidth: 0
Flags: HMW
LayerCount: 2
Fore
SplineSet
12 -77 m 0
 15 -11 l 0
 69 1 97 19 129 82 c 0
 188 200 206 435 148 550 c 0
 122 601 90 617 51 623 c 0
 54 687 l 0
 124 679 182 645 219 571 c 0
 275 460 271 204 200 63 c 0
 158 -21 94 -66 12 -77 c 0
EndSplineSet
EndChar

StartChar: asterisk
Encoding: 42 42 41
Width: 388
VWidth: 0
Flags: HMW
LayerCount: 2
Fore
SplineSet
204 487 m 0
 197 519 198 544 203 620 c 0
 255 620 l 0
 252 552 253 520 242 486 c 0
 270 514 290 520 363 558 c 0
 386 512 l 0
 318 476 302 464 256 454 c 0
 296 443 312 431 377 390 c 0
 347 346 l 0
 280 388 253 402 235 428 c 0
 244 400 242 364 237 291 c 0
 185 291 l 0
 188 361 189 397 201 428 c 0
 182 405 162 395 83 354 c 0
 60 400 l 0
 136 440 156 454 189 457 c 0
 147 470 139 477 66 524 c 0
 95 566 l 0
 157 530 183 518 204 487 c 0
EndSplineSet
EndChar

StartChar: plus
Encoding: 43 43 42
Width: 500
VWidth: 0
Flags: HMW
LayerCount: 2
Fore
SplineSet
180 315 m 0
 198 368 192 514 262 584 c 0
 330 652 450 638 494 596 c 0
 489 517 l 0
 445 568 363 580 321 538 c 0
 269 486 271 376 254 315 c 0
 397 315 l 0
 394 253 l 0
 239 253 l 0
 230 224 192 105 148 69 c 0
 464 69 l 0
 461 0 l 0
 47 0 l 0
 52 60 l 0
 84 76 142 141 166 253 c 0
 87 253 l 0
 89 315 l 0
 180 315 l 0
EndSplineSet
EndChar

StartChar: comma
Encoding: 44 44 43
Width: 257
VWidth: 0
Flags: HMW
LayerCount: 2
Fore
SplineSet
154 74 m 0
 217 11 170 -118 77 -185 c 0
 47 -150 l 0
 86 -117 112 -78 112 -39 c 0
 112 21 76 26 76 50 c 0
 76 91 124 104 154 74 c 0
EndSplineSet
EndChar

StartChar: hyphen
Encoding: 45 45 44
Width: 258
VWidth: 0
Flags: HMW
LayerCount: 2
Fore
SplineSet
28 196 m 0
 32 259 l 0
 260 259 l 0
 256 196 l 0
 28 196 l 0
EndSplineSet
EndChar

StartChar: period
Encoding: 46 46 45
Width: 258
VWidth: 0
Flags: HMW
LayerCount: 2
Fore
SplineSet
166 71 m 0
 185 52 185 20 166 1 c 0
 147 -17 115 -17 96 1 c 0
 77 20 77 52 96 71 c 0
 115 90 147 90 166 71 c 0
EndSplineSet
EndChar

StartChar: zero
Encoding: 48 48 47
Width: 500
VWidth: 0
Flags: HMW
LayerCount: 2
Fore
SplineSet
194 534 m 0
 104 444 104 148 173 79 c 0
 211 41 289 37 339 87 c 0
 420 168 438 459 358 539 c 0
 319 578 240 580 194 534 c 0
137 575 m 0
 217 655 354 643 417 580 c 0
 515 487 504 151 394 44 c 0
 321 -29 185 -31 116 38 c 0
 24 130 24 462 137 575 c 0
EndSplineSet
EndChar

StartChar: one
Encoding: 49 49 48
Width: 500
VWidth: 0
Flags: HMW
LayerCount: 2
Fore
SplineSet
292 527 m 0
 279 513 203 459 199 456 c 0
 164 509 l 0
 177 517 290 593 310 621 c 0
 368 621 l 0
 335 0 l 0
 264 0 l 0
 292 527 l 0
EndSplineSet
EndChar

StartChar: two
Encoding: 50 50 49
Width: 500
VWidth: 0
Flags: HMW
LayerCount: 2
Fore
SplineSet
54 60 m 0
 223 219 390 359 390 459 c 0
 390 595 202 620 140 451 c 0
 76 474 l 0
 129 687 468 685 468 461 c 0
 468 335 343 234 165 69 c 0
 445 69 l 0
 442 0 l 0
 50 0 l 0
 54 60 l 0
EndSplineSet
EndChar

StartChar: three
Encoding: 51 51 50
Width: 500
VWidth: 0
Flags: HMW
LayerCount: 2
Fore
SplineSet
410 585 m 0
 477 518 470 371 336 323 c 0
 337 321 l 0
 476 297 468 114 399 45 c 0
 318 -36 124 -40 36 91 c 0
 88 138 l 0
 168 31 289 40 335 86 c 0
 371 122 388 203 337 254 c 0
 294 297 195 291 154 290 c 0
 157 359 l 0
 250 354 293 349 341 397 c 0
 376 432 389 496 351 534 c 0
 309 576 206 581 128 493 c 0
 85 545 l 0
 183 650 340 654 410 585 c 0
EndSplineSet
EndChar

StartChar: four
Encoding: 52 52 51
Width: 500
VWidth: 0
Flags: HMW
LayerCount: 2
Fore
SplineSet
51 153 m 0
 55 218 l 0
 309 621 l 0
 391 621 l 0
 138 220 l 0
 336 220 l 0
 348 455 l 0
 419 455 l 0
 407 220 l 0
 479 220 l 0
 475 153 l 0
 403 153 l 0
 395 0 l 0
 324 0 l 0
 332 153 l 0
 51 153 l 0
EndSplineSet
EndChar

StartChar: five
Encoding: 53 53 52
Width: 500
VWidth: 0
Flags: HMW
LayerCount: 2
Fore
SplineSet
341 288 m 0
 290 339 200 329 158 280 c 0
 98 304 l 0
 121 621 l 0
 447 621 l 0
 441 552 l 0
 184 552 l 0
 168 366 l 0
 218 402 332 411 400 343 c 0
 475 268 460 121 386 47 c 0
 298 -41 122 -30 38 76 c 0
 82 125 l 0
 166 38 275 41 329 95 c 0
 381 147 385 244 341 288 c 0
EndSplineSet
EndChar

StartChar: six
Encoding: 54 54 53
Width: 500
VWidth: 0
Flags: HMW
LayerCount: 2
Fore
SplineSet
119 42 m 0
 18 143 36 387 288 621 c 0
 376 621 l 0
 233 458 197 416 172 353 c 0
 248 410 358 400 411 347 c 0
 484 274 473 117 399 43 c 0
 326 -30 192 -31 119 42 c 0
149 270 m 0
 132 223 127 133 175 85 c 0
 221 39 298 40 343 85 c 0
 394 136 405 247 353 299 c 0
 305 347 199 323 149 270 c 0
EndSplineSet
EndChar

StartChar: seven
Encoding: 55 55 54
Width: 500
VWidth: 0
Flags: HMW
LayerCount: 2
Fore
SplineSet
113 0 m 0
 389 552 l 0
 101 552 l 0
 105 621 l 0
 476 621 l 0
 473 563 l 0
 190 0 l 0
 113 0 l 0
EndSplineSet
EndChar

StartChar: eight
Encoding: 56 56 55
Width: 500
VWidth: 0
Flags: HMW
LayerCount: 2
Fore
SplineSet
255 290 m 0
 94 236 111 130 151 90 c 0
 211 30 389 40 389 160 c 0
 389 216 357 249 255 290 c 0
368 541 m 0
 316 593 161 585 161 476 c 0
 161 429 194 387 269 357 c 0
 412 418 401 508 368 541 c 0
422 47 m 0
 348 -27 172 -35 90 47 c 0
 36 101 4 260 194 322 c 0
 194 324 l 0
 59 376 65 521 124 580 c 0
 192 648 364 647 427 584 c 0
 489 522 487 396 337 328 c 0
 337 326 l 0
 509 256 483 108 422 47 c 0
EndSplineSet
EndChar

StartChar: nine
Encoding: 57 57 56
Width: 500
VWidth: 0
Flags: HMW
LayerCount: 2
Fore
SplineSet
415 580 m 0
 525 470 437 228 291 0 c 0
 207 0 l 0
 265 91 325 201 354 271 c 0
 278 209 171 225 118 277 c 0
 47 348 52 497 127 572 c 0
 201 646 343 652 415 580 c 0
347 339 m 0
 400 392 403 489 359 533 c 0
 321 571 233 578 184 529 c 0
 131 476 132 371 174 329 c 0
 216 287 299 291 347 339 c 0
EndSplineSet
EndChar

StartChar: less
Encoding: 60 60 59
Width: 191
VWidth: 0
Flags: HMW
LayerCount: 2
Fore
SplineSet
140 635 m 0
 180 635 190 593 177 566 c 0
 71 346 l 0
 36 346 l 0
 91 593 l 0
 97 618 117 635 140 635 c 0
EndSplineSet
EndChar

StartChar: equal
Encoding: 61 61 60
Width: 500
VWidth: 0
Flags: HMW
LayerCount: 2
Fore
SplineSet
12 284 m 0
 12 360 l 0
 488 360 l 0
 488 284 l 0
 12 284 l 0
12 135 m 0
 12 211 l 0
 488 211 l 0
 488 135 l 0
 12 135 l 0
EndSplineSet
EndChar

StartChar: question
Encoding: 63 63 62
Width: 371
VWidth: 0
Flags: HMW
LayerCount: 2
Fore
SplineSet
191 71 m 0
 210 52 210 20 191 1 c 0
 172 -17 140 -17 121 1 c 0
 102 20 102 52 121 71 c 0
 140 90 172 90 191 71 c 0
321 585 m 0
 399 507 383 303 204 283 c 0
 197 159 l 0
 129 159 l 0
 138 349 l 0
 168 346 220 346 259 385 c 0
 301 427 296 503 262 537 c 0
 220 579 143 568 77 529 c 0
 70 598 l 0
 152 644 262 644 321 585 c 0
EndSplineSet
EndChar

StartChar: at
Encoding: 64 64 63
Width: 242
VWidth: 0
Flags: HMW
LayerCount: 2
Fore
SplineSet
234 504 m 0
 320 630 l 0
 436 630 l 0
 293 504 l 0
 234 504 l 0
EndSplineSet
EndChar

StartChar: A
Encoding: 65 65 64
Width: 598
VWidth: 0
Flags: HMW
LayerCount: 2
Fore
SplineSet
220 271 m 0
 413 271 l 0
 329 521 l 0
 220 271 l 0
19 0 m 0
 299 621 l 0
 373 621 l 0
 579 0 l 0
 503 0 l 0
 434 206 l 0
 190 206 l 0
 98 0 l 0
 19 0 l 0
EndSplineSet
EndChar

StartChar: B
Encoding: 66 66 65
Width: 550
VWidth: 0
Flags: HMW
LayerCount: 2
Fore
SplineSet
84 6 m 0
 117 619 l 0
 282 629 388 631 446 573 c 0
 506 513 489 367 376 330 c 0
 375 327 l 0
 533 309 543 132 463 52 c 0
 390 -19 198 -10 84 6 c 0
163 63 m 0
 242 57 354 52 400 98 c 0
 441 139 442 210 403 249 c 0
 365 287 307 286 174 286 c 0
 163 63 l 0
189 558 m 0
 178 355 l 0
 295 355 334 355 368 389 c 0
 409 430 411 501 379 533 c 0
 353 559 283 564 189 558 c 0
EndSplineSet
EndChar

StartChar: C
Encoding: 67 67 66
Width: 564
VWidth: 0
Flags: HMW
LayerCount: 2
Fore
SplineSet
214 100 m 0
 277 37 402 41 486 146 c 0
 531 97 l 0
 413 -45 242 -36 149 57 c 0
 49 157 50 434 169 553 c 0
 280 664 482 663 556 513 c 0
 495 477 l 0
 445 576 310 593 230 513 c 0
 136 419 133 181 214 100 c 0
EndSplineSet
EndChar

StartChar: D
Encoding: 68 68 67
Width: 613
VWidth: 0
Flags: HMW
LayerCount: 2
Fore
SplineSet
433 496 m 0
 362 567 242 558 189 554 c 0
 163 67 l 0
 261 56 357 68 415 126 c 0
 505 216 519 410 433 496 c 0
494 543 m 0
 601 436 594 201 476 83 c 0
 382 -11 244 -13 84 1 c 0
 117 620 l 0
 267 628 406 631 494 543 c 0
EndSplineSet
EndChar

StartChar: E
Encoding: 69 69 68
Width: 469
VWidth: 0
Flags: HMW
LayerCount: 2
Fore
SplineSet
84 0 m 0
 117 621 l 0
 453 621 l 0
 449 552 l 0
 188 552 l 0
 178 350 l 0
 414 350 l 0
 410 281 l 0
 174 281 l 0
 163 69 l 0
 424 69 l 0
 420 0 l 0
 84 0 l 0
EndSplineSet
EndChar

StartChar: F
Encoding: 70 70 69
Width: 467
VWidth: 0
Flags: HMW
LayerCount: 2
Fore
SplineSet
82 0 m 0
 115 621 l 0
 449 621 l 0
 445 552 l 0
 186 552 l 0
 176 350 l 0
 410 350 l 0
 406 281 l 0
 172 281 l 0
 158 0 l 0
 82 0 l 0
EndSplineSet
EndChar

StartChar: G
Encoding: 71 71 70
Width: 595
VWidth: 0
Flags: HMW
LayerCount: 2
Fore
SplineSet
525 254 m 0
 532 164 513 90 466 45 c 0
 392 -29 218 -35 135 48 c 0
 31 152 29 429 153 553 c 0
 264 664 478 657 544 534 c 0
 490 492 l 0
 432 586 291 590 215 514 c 0
 119 418 113 177 194 96 c 0
 257 33 366 45 414 93 c 0
 451 130 456 188 449 254 c 0
 352 254 l 0
 355 323 l 0
 595 323 l 0
 591 254 l 0
 525 254 l 0
EndSplineSet
EndChar

StartChar: H
Encoding: 72 72 71
Width: 612
VWidth: 0
Flags: HMW
LayerCount: 2
Fore
SplineSet
80 0 m 0
 113 621 l 0
 188 621 l 0
 174 347 l 0
 476 347 l 0
 491 621 l 0
 566 621 l 0
 533 0 l 0
 458 0 l 0
 473 278 l 0
 170 278 l 0
 155 0 l 0
 80 0 l 0
EndSplineSet
EndChar

StartChar: I
Encoding: 73 73 72
Width: 262
VWidth: 0
Flags: HMW
LayerCount: 2
Fore
SplineSet
243 0 m 0
 19 0 l 0
 23 69 l 0
 97 69 l 0
 122 552 l 0
 48 552 l 0
 52 621 l 0
 276 621 l 0
 272 552 l 0
 197 552 l 0
 172 69 l 0
 247 69 l 0
 243 0 l 0
EndSplineSet
EndChar

StartChar: J
Encoding: 74 74 73
Width: 410
VWidth: 0
Flags: HMW
LayerCount: 2
Fore
SplineSet
281 28 m 0
 224 -29 112 -22 64 26 c 0
 21 69 20 137 25 178 c 0
 94 178 l 0
 93 156 83 51 173 51 c 0
 237 51 252 106 256 183 c 0
 275 552 l 0
 183 552 l 0
 187 621 l 0
 442 621 l 0
 438 552 l 0
 350 552 l 0
 330 170 l 0
 327 121 317 64 281 28 c 0
EndSplineSet
EndChar

StartChar: K
Encoding: 75 75 74
Width: 516
VWidth: 0
Flags: HMW
LayerCount: 2
Fore
SplineSet
176 352 m 0
 430 620 l 0
 524 620 l 0
 238 325 l 0
 521 0 l 0
 423 0 l 0
 172 284 l 0
 157 0 l 0
 82 0 l 0
 115 621 l 0
 190 621 l 0
 176 352 l 0
EndSplineSet
EndChar

StartChar: L
Encoding: 76 76 75
Width: 467
VWidth: 0
Flags: HMW
LayerCount: 2
Fore
SplineSet
81 0 m 0
 114 621 l 0
 189 621 l 0
 160 69 l 0
 423 69 l 0
 419 0 l 0
 81 0 l 0
EndSplineSet
EndChar

StartChar: M
Encoding: 77 77 76
Width: 710
VWidth: 0
Flags: HMW
LayerCount: 2
Fore
SplineSet
184 504 m 0
 157 0 l 0
 82 0 l 0
 115 621 l 0
 193 621 l 0
 194 620 l 0
 366 344 l 0
 586 621 l 0
 662 621 l 0
 629 0 l 0
 554 0 l 0
 581 503 l 0
 391 260 l 0
 329 260 l 0
 184 504 l 0
EndSplineSet
EndChar

StartChar: N
Encoding: 78 78 77
Width: 628
VWidth: 0
Flags: HMW
LayerCount: 2
Fore
SplineSet
480 126 m 0
 506 621 l 0
 581 621 l 0
 548 0 l 0
 469 0 l 0
 183 494 l 0
 157 0 l 0
 82 0 l 0
 115 621 l 0
 193 621 l 0
 480 126 l 0
EndSplineSet
EndChar

StartChar: O
Encoding: 79 79 78
Width: 644
VWidth: 0
Flags: HMW
LayerCount: 2
Fore
SplineSet
231 517 m 0
 135 421 137 171 212 96 c 0
 273 35 387 40 447 100 c 0
 544 197 541 441 463 519 c 0
 399 583 288 574 231 517 c 0
504 58 m 0
 415 -31 245 -39 153 53 c 0
 48 158 57 445 171 559 c 0
 266 654 435 653 518 570 c 0
 634 454 618 172 504 58 c 0
EndSplineSet
EndChar

StartChar: P
Encoding: 80 80 79
Width: 515
VWidth: 0
Flags: HMW
LayerCount: 2
Fore
SplineSet
444 342 m 0
 386 284 298 274 172 282 c 0
 157 0 l 0
 82 0 l 0
 115 619 l 0
 246 626 370 635 442 563 c 0
 500 505 501 397 444 342 c 0
380 384 m 0
 413 417 418 482 378 522 c 0
 340 560 235 559 186 554 c 0
 175 350 l 0
 242 343 336 340 380 384 c 0
EndSplineSet
EndChar

StartChar: Q
Encoding: 81 81 80
Width: 644
VWidth: 0
Flags: HMW
LayerCount: 2
Fore
SplineSet
443 95 m 0
 547 192 542 441 464 519 c 0
 400 583 288 574 231 517 c 0
 135 421 137 171 212 96 c 0
 259 49 333 44 383 62 c 0
 334 124 l 0
 387 166 l 0
 443 95 l 0
554 -44 m 0
 501 -87 l 0
 427 7 l 0
 356 -22 232 -26 153 53 c 0
 48 158 57 445 171 559 c 0
 266 654 436 653 519 570 c 0
 641 448 616 143 486 41 c 0
 554 -44 l 0
EndSplineSet
EndChar

StartChar: R
Encoding: 82 82 81
Width: 516
VWidth: 0
Flags: HMW
LayerCount: 2
Fore
SplineSet
380 384 m 0
 413 417 418 482 378 522 c 0
 340 560 235 559 186 554 c 0
 175 350 l 0
 242 343 336 340 380 384 c 0
269 280 m 0
 498 0 l 0
 404 0 l 0
 172 289 l 0
 157 0 l 0
 82 0 l 0
 115 619 l 0
 246 626 370 635 442 563 c 0
 500 505 501 397 444 342 c 0
 405 303 353 284 269 280 c 0
EndSplineSet
EndChar

StartChar: S
Encoding: 83 83 82
Width: 467
VWidth: 0
Flags: HMW
LayerCount: 2
Fore
SplineSet
50 115 m 0
 232 3 338 72 338 155 c 0
 338 283 81 296 81 476 c 0
 81 641 277 666 434 592 c 0
 426 517 l 0
 266 599 162 558 162 480 c 0
 162 358 418 342 418 161 c 0
 418 -1 228 -66 42 38 c 0
 50 115 l 0
EndSplineSet
EndChar

StartChar: T
Encoding: 84 84 83
Width: 483
VWidth: 0
Flags: HMW
LayerCount: 2
Fore
SplineSet
206 0 m 0
 235 552 l 0
 57 552 l 0
 60 621 l 0
 490 621 l 0
 486 552 l 0
 310 552 l 0
 281 0 l 0
 206 0 l 0
EndSplineSet
EndChar

StartChar: U
Encoding: 85 85 84
Width: 612
VWidth: 0
Flags: HMW
LayerCount: 2
Fore
SplineSet
156 40 m 0
 105 91 89 175 94 264 c 0
 113 621 l 0
 188 621 l 0
 170 282 l 0
 162 130 198 55 311 55 c 0
 437 55 466 166 471 266 c 0
 490 621 l 0
 565 621 l 0
 547 282 l 0
 543 198 529 105 466 42 c 0
 398 -26 230 -34 156 40 c 0
EndSplineSet
EndChar

StartChar: V
Encoding: 86 86 85
Width: 564
VWidth: 0
Flags: HMW
LayerCount: 2
Fore
SplineSet
74 621 m 0
 150 621 l 0
 298 128 l 0
 513 621 l 0
 590 621 l 0
 317 0 l 0
 262 0 l 0
 74 621 l 0
EndSplineSet
EndChar

StartChar: W
Encoding: 87 87 86
Width: 838
VWidth: 0
Flags: HMW
LayerCount: 2
Fore
SplineSet
605 132 m 0
 772 621 l 0
 850 621 l 0
 631 0 l 0
 563 0 l 0
 442 485 l 0
 258 0 l 0
 198 0 l 0
 59 621 l 0
 136 621 l 0
 239 148 l 0
 421 621 l 0
 486 621 l 0
 605 132 l 0
EndSplineSet
EndChar

StartChar: X
Encoding: 88 88 87
Width: 530
VWidth: 0
Flags: HMW
LayerCount: 2
Fore
SplineSet
14 0 m 0
 241 315 l 0
 62 621 l 0
 147 621 l 0
 288 375 l 0
 460 621 l 0
 549 621 l 0
 328 314 l 0
 516 0 l 0
 427 0 l 0
 281 253 l 0
 104 0 l 0
 14 0 l 0
EndSplineSet
EndChar

StartChar: Y
Encoding: 89 89 88
Width: 500
VWidth: 0
Flags: HMW
LayerCount: 2
Fore
SplineSet
228 288 m 0
 51 621 l 0
 129 621 l 0
 270 354 l 0
 437 621 l 0
 519 621 l 0
 303 289 l 0
 288 0 l 0
 213 0 l 0
 228 288 l 0
EndSplineSet
EndChar

StartChar: Z
Encoding: 90 90 89
Width: 469
VWidth: 0
Flags: HMW
LayerCount: 2
Fore
SplineSet
475 560 m 0
 123 69 l 0
 451 69 l 0
 447 0 l 0
 18 0 l 0
 21 56 l 0
 380 552 l 0
 61 552 l 0
 65 621 l 0
 479 621 l 0
 475 560 l 0
EndSplineSet
EndChar

StartChar: bracketleft
Encoding: 91 91 90
Width: 242
VWidth: 0
Flags: HMW
LayerCount: 2
Fore
SplineSet
397 610 m 0
 416 592 416 558 397 540 c 0
 379 521 346 521 328 540 c 0
 309 558 309 592 328 610 c 0
 346 629 379 629 397 610 c 0
231 610 m 0
 250 592 250 558 231 540 c 0
 213 521 180 521 162 540 c 0
 143 558 143 592 162 610 c 0
 180 629 213 629 231 610 c 0
EndSplineSet
EndChar

StartChar: backslash
Encoding: 92 92 91
Width: 242
VWidth: 0
Flags: HMW
LayerCount: 2
Fore
SplineSet
315 609 m 0
 292 632 253 632 230 609 c 0
 207 586 207 549 230 526 c 0
 253 503 292 503 315 526 c 0
 338 549 338 586 315 609 c 0
343 637 m 0
 381 599 381 536 343 498 c 0
 305 460 240 460 202 498 c 0
 164 536 164 599 202 637 c 0
 240 675 305 675 343 637 c 0
EndSplineSet
EndChar

StartChar: bracketright
Encoding: 93 93 92
Width: 242
VWidth: 0
Flags: HMW
LayerCount: 2
Fore
SplineSet
314 610 m 0
 333 592 333 558 314 540 c 0
 296 521 263 521 245 540 c 0
 226 558 226 592 245 610 c 0
 263 629 296 629 314 610 c 0
EndSplineSet
EndChar

StartChar: asciicircum
Encoding: 94 94 93
Width: 242
VWidth: 0
Flags: HMW
LayerCount: 2
Fore
SplineSet
128 504 m 0
 230 630 l 0
 342 630 l 0
 418 504 l 0
 365 504 l 0
 281 580 l 0
 181 504 l 0
 128 504 l 0
EndSplineSet
EndChar

StartChar: underscore
Encoding: 95 95 94
Width: 500
VWidth: 0
Flags: HMW
LayerCount: 2
Fore
SplineSet
1 -133 m 0
 1 -72 l 0
 502 -72 l 0
 502 -133 l 0
 1 -133 l 0
EndSplineSet
EndChar

StartChar: grave
Encoding: 96 96 95
Width: 242
VWidth: 0
Flags: HMW
LayerCount: 2
Fore
SplineSet
333 504 m 0
 274 504 l 0
 131 630 l 0
 247 630 l 0
 333 504 l 0
EndSplineSet
EndChar

StartChar: a
Encoding: 97 97 96
Width: 502
VWidth: 0
Flags: HMW
LayerCount: 2
Fore
SplineSet
303 92 m 0
 357 146 362 216 370 372 c 0
 332 389 252 393 200 341 c 0
 131 272 126 123 171 78 c 0
 198 51 259 48 303 92 c 0
144 386 m 0
 223 465 360 460 441 427 c 0
 425 125 l 0
 420 33 463 39 497 61 c 0
 494 14 l 0
 482 0 460 -9 434 -9 c 0
 388 -9 357 23 357 73 c 0
 288 -31 180 -34 114 32 c 0
 46 100 53 295 144 386 c 0
EndSplineSet
EndChar

StartChar: b
Encoding: 98 98 97
Width: 500
VWidth: 0
Flags: HMW
LayerCount: 2
Fore
SplineSet
326 89 m 0
 385 148 408 304 352 360 c 0
 318 394 252 389 206 343 c 0
 159 296 153 222 145 73 c 0
 199 36 275 38 326 89 c 0
410 411 m 0
 489 332 466 134 381 49 c 0
 307 -25 199 -33 75 31 c 0
 110 689 l 0
 178 689 l 0
 161 378 l 0
 223 467 354 467 410 411 c 0
EndSplineSet
EndChar

StartChar: c
Encoding: 99 99 98
Width: 403
VWidth: 0
Flags: HMW
LayerCount: 2
Fore
SplineSet
120 37 m 0
 47 110 47 294 149 396 c 0
 215 462 337 460 401 428 c 0
 392 360 l 0
 335 386 254 396 200 342 c 0
 131 273 128 134 180 82 c 0
 225 37 303 46 381 96 c 0
 376 24 l 0
 321 -12 196 -39 120 37 c 0
EndSplineSet
EndChar

StartChar: d
Encoding: 100 100 99
Width: 516
VWidth: 0
Flags: HMW
LayerCount: 2
Fore
SplineSet
381 444 m 0
 394 689 l 0
 462 689 l 0
 431 125 l 0
 426 33 471 39 505 61 c 0
 502 14 l 0
 490 0 466 -9 440 -9 c 0
 394 -9 363 23 363 73 c 0
 294 -31 178 -34 112 32 c 0
 44 100 51 295 142 386 c 0
 191 435 286 462 381 444 c 0
376 372 m 0
 338 389 250 393 198 341 c 0
 129 272 124 123 169 78 c 0
 196 51 265 48 309 92 c 0
 363 146 368 216 376 372 c 0
EndSplineSet
EndChar

StartChar: e
Encoding: 101 101 100
Width: 438
VWidth: 0
Flags: HMW
LayerCount: 2
Fore
SplineSet
341 326 m 0
 341 420 174 408 142 241 c 0
 222 229 341 251 341 326 c 0
140 177 m 0
 145 41 268 16 376 97 c 0
 373 28 l 0
 300 -21 188 -33 119 35 c 0
 47 107 43 292 144 393 c 0
 214 463 328 466 381 413 c 0
 431 363 423 282 378 237 c 0
 310 169 182 173 140 177 c 0
EndSplineSet
EndChar

StartChar: f
Encoding: 102 102 101
Width: 256
VWidth: 0
Flags: HMW
LayerCount: 2
Fore
SplineSet
50 -138 m 0
 100 -88 99 55 110 383 c 0
 39 383 l 0
 42 440 l 0
 112 440 l 0
 113 549 122 609 166 653 c 0
 216 703 296 697 330 677 c 0
 323 612 l 0
 303 630 246 637 216 607 c 0
 184 575 180 503 180 440 c 0
 270 440 l 0
 265 383 l 0
 179 383 l 0
 172 32 162 -122 100 -184 c 0
 43 -241 -39 -239 -78 -222 c 0
 -75 -163 l 0
 -44 -171 11 -177 50 -138 c 0
EndSplineSet
EndChar

StartChar: g
Encoding: 103 103 102
Width: 500
VWidth: 0
Flags: HMW
LayerCount: 2
Fore
SplineSet
119 31 m 0
 44 106 56 291 145 380 c 0
 221 456 355 465 454 432 c 0
 431 1 l 0
 417 -258 198 -247 119 -209 c 0
 122 -145 l 0
 201 -180 272 -171 316 -127 c 0
 352 -91 361 -34 366 60 c 0
 296 -28 183 -33 119 31 c 0
201 337 m 0
 129 265 131 124 173 82 c 0
 211 44 279 52 323 96 c 0
 364 137 376 203 383 380 c 0
 350 387 264 400 201 337 c 0
EndSplineSet
EndChar

StartChar: h
Encoding: 104 104 103
Width: 500
VWidth: 0
Flags: HMW
LayerCount: 2
Fore
SplineSet
107 689 m 0
 175 689 l 0
 158 369 l 0
 205 430 242 450 299 450 c 0
 379 450 427 399 421 283 c 0
 412 113 l 0
 408 47 447 35 496 68 c 0
 493 16 l 0
 471 -1 448 -9 422 -9 c 0
 355 -9 341 50 344 109 c 0
 353 275 l 0
 357 341 338 380 291 380 c 0
 216 380 155 313 148 186 c 0
 138 0 l 0
 70 0 l 0
 107 689 l 0
EndSplineSet
EndChar

StartChar: i
Encoding: 105 105 104
Width: 225
VWidth: 0
Flags: HMW
LayerCount: 2
Fore
SplineSet
222 14 m 0
 200 -2 179 -9 156 -9 c 0
 75 -9 68 60 72 129 c 0
 89 440 l 0
 157 440 l 0
 140 129 l 0
 135 33 178 32 225 68 c 0
 222 14 l 0
161 606 m 0
 179 588 178 560 161 543 c 0
 143 525 114 526 97 543 c 0
 80 560 79 588 97 606 c 0
 116 625 142 625 161 606 c 0
EndSplineSet
EndChar

StartChar: j
Encoding: 106 106 105
Width: 210
VWidth: 0
Flags: HMW
LayerCount: 2
Fore
SplineSet
170 606 m 0
 188 588 187 560 170 543 c 0
 152 525 123 526 106 543 c 0
 89 560 88 588 106 606 c 0
 125 625 151 625 170 606 c 0
72 -44 m 0
 98 440 l 0
 166 440 l 0
 140 -44 l 0
 129 -253 -32 -243 -81 -223 c 0
 -78 -164 l 0
 -17 -185 64 -171 72 -44 c 0
EndSplineSet
EndChar

StartChar: k
Encoding: 107 107 106
Width: 500
VWidth: 0
Flags: HMW
LayerCount: 2
Fore
SplineSet
268 224 m 0
 362 89 l 0
 402 32 435 60 459 75 c 0
 457 18 l 0
 406 -24 348 -17 306 44 c 0
 176 232 l 0
 163 0 l 0
 95 0 l 0
 132 689 l 0
 200 689 l 0
 183 377 l 0
 269 472 364 460 401 423 c 0
 441 383 438 319 396 277 c 0
 364 245 318 232 268 224 c 0
183 269 m 0
 247 266 355 290 355 352 c 0
 355 408 218 392 183 269 c 0
EndSplineSet
EndChar

StartChar: l
Encoding: 108 108 107
Width: 226
VWidth: 0
Flags: HMW
LayerCount: 2
Fore
SplineSet
145 129 m 0
 140 33 181 34 228 66 c 0
 225 13 l 0
 203 -2 184 -9 161 -9 c 0
 80 -9 73 60 77 129 c 0
 107 689 l 0
 175 689 l 0
 145 129 l 0
EndSplineSet
EndChar

StartChar: m
Encoding: 109 109 108
Width: 742
VWidth: 0
Flags: HMW
LayerCount: 2
Fore
SplineSet
594 297 m 0
 598 357 572 386 532 386 c 0
 470 386 417 321 413 236 c 0
 400 0 l 0
 332 0 l 0
 348 293 l 0
 351 358 318 382 280 382 c 0
 216 382 159 313 154 224 c 0
 142 0 l 0
 74 0 l 0
 90 295 l 0
 93 356 88 398 79 440 c 0
 148 440 l 0
 155 413 156 403 159 372 c 0
 208 468 359 483 406 376 c 0
 440 425 489 450 544 450 c 0
 619 450 668 402 662 294 c 0
 652 111 l 0
 649 60 674 26 739 67 c 0
 736 15 l 0
 714 -3 694 -9 666 -9 c 0
 603 -9 580 29 584 112 c 0
 594 297 l 0
EndSplineSet
EndChar

StartChar: n
Encoding: 110 110 109
Width: 500
VWidth: 0
Flags: HMW
LayerCount: 2
Fore
SplineSet
344 109 m 0
 353 275 l 0
 357 341 338 380 291 380 c 0
 216 380 155 313 148 186 c 0
 138 0 l 0
 70 0 l 0
 86 299 l 0
 89 365 85 401 75 440 c 0
 143 440 l 0
 150 417 151 411 155 367 c 0
 202 428 242 450 299 450 c 0
 379 450 427 399 421 283 c 0
 412 113 l 0
 408 47 447 35 496 68 c 0
 493 16 l 0
 471 -1 448 -9 422 -9 c 0
 355 -9 341 50 344 109 c 0
EndSplineSet
EndChar

StartChar: o
Encoding: 111 111 110
Width: 500
VWidth: 0
Flags: HMW
LayerCount: 2
Fore
SplineSet
121 36 m 0
 45 112 46 304 134 394 c 0
 216 476 348 459 403 404 c 0
 492 315 466 118 390 42 c 0
 319 -29 189 -30 121 36 c 0
189 356 m 0
 128 295 121 134 175 80 c 0
 214 41 291 40 336 85 c 0
 398 147 407 304 353 358 c 0
 314 397 233 400 189 356 c 0
EndSplineSet
EndChar

StartChar: p
Encoding: 112 112 111
Width: 500
VWidth: 0
Flags: HMW
LayerCount: 2
Fore
SplineSet
321 85 m 0
 387 151 409 303 351 361 c 0
 320 392 250 389 208 347 c 0
 158 297 154 228 147 96 c 0
 191 35 265 29 321 85 c 0
378 41 m 0
 312 -25 199 -28 144 27 c 0
 130 -227 l 0
 62 -227 l 0
 92 327 l 0
 94 373 87 416 81 440 c 0
 152 440 l 0
 157 422 158 413 160 379 c 0
 234 472 352 466 410 408 c 0
 486 332 466 129 378 41 c 0
EndSplineSet
EndChar

StartChar: q
Encoding: 113 113 112
Width: 500
VWidth: 0
Flags: HMW
LayerCount: 2
Fore
SplineSet
201 343 m 0
 143 285 116 133 170 79 c 0
 203 46 268 43 324 99 c 0
 363 138 369 188 379 379 c 0
 326 396 250 392 201 343 c 0
117 29 m 0
 36 110 61 302 146 387 c 0
 218 459 338 463 450 432 c 0
 414 -227 l 0
 346 -227 l 0
 362 58 l 0
 277 -35 172 -26 117 29 c 0
EndSplineSet
EndChar

StartChar: r
Encoding: 114 114 113
Width: 339
VWidth: 0
Flags: HMW
LayerCount: 2
Fore
SplineSet
338 373 m 0
 228 415 162 298 156 176 c 0
 147 0 l 0
 79 0 l 0
 96 314 l 0
 99 361 97 401 87 440 c 0
 153 440 l 0
 166 404 165 375 162 348 c 0
 215 471 310 458 345 436 c 0
 338 373 l 0
EndSplineSet
EndChar

StartChar: s
Encoding: 115 115 114
Width: 371
VWidth: 0
Flags: HMW
LayerCount: 2
Fore
SplineSet
45 23 m 0
 48 94 l 0
 127 33 257 33 257 108 c 0
 257 191 71 209 71 333 c 0
 71 454 230 477 335 422 c 0
 328 356 l 0
 237 405 144 398 144 337 c 0
 144 264 330 247 330 114 c 0
 330 -34 128 -34 45 23 c 0
EndSplineSet
EndChar

StartChar: t
Encoding: 116 116 115
Width: 321
VWidth: 0
Flags: HMW
LayerCount: 2
Fore
SplineSet
203 -12 m 0
 92 -12 89 72 92 126 c 0
 105 383 l 0
 50 383 l 0
 53 440 l 0
 109 440 l 0
 115 551 l 0
 183 551 l 0
 177 440 l 0
 305 440 l 0
 300 383 l 0
 174 383 l 0
 160 131 l 0
 154 32 222 32 292 80 c 0
 289 17 l 0
 263 -3 235 -12 203 -12 c 0
EndSplineSet
EndChar

StartChar: u
Encoding: 117 117 116
Width: 500
VWidth: 0
Flags: HMW
LayerCount: 2
Fore
SplineSet
352 199 m 0
 365 440 l 0
 433 440 l 0
 415 104 l 0
 412 44 455 34 498 67 c 0
 494 14 l 0
 429 -30 352 -10 348 65 c 0
 311 13 266 -12 211 -12 c 0
 119 -13 75 48 81 150 c 0
 89 295 l 0
 93 368 92 400 87 440 c 0
 156 440 l 0
 162 404 161 370 157 299 c 0
 150 163 l 0
 145 75 175 51 220 51 c 0
 288 51 348 136 352 199 c 0
EndSplineSet
EndChar

StartChar: v
Encoding: 118 118 117
Width: 452
VWidth: 0
Flags: HMW
LayerCount: 2
Fore
SplineSet
290 50 m 0
 267 -5 254 -12 219 -12 c 0
 186 -12 175 -8 161 40 c 0
 45 440 l 0
 117 440 l 0
 224 60 l 0
 379 440 l 0
 452 440 l 0
 290 50 l 0
EndSplineSet
EndChar

StartChar: w
Encoding: 119 119 118
Width: 692
VWidth: 0
Flags: HMW
LayerCount: 2
Fore
SplineSet
212 78 m 0
 338 440 l 0
 399 440 l 0
 488 83 l 0
 611 440 l 0
 687 440 l 0
 538 33 l 0
 525 -2 514 -12 481 -12 c 0
 454 -12 440 0 433 29 c 0
 363 309 l 0
 268 35 l 0
 254 -4 242 -12 204 -12 c 0
 176 -12 163 -4 156 26 c 0
 54 440 l 0
 124 440 l 0
 212 78 l 0
EndSplineSet
EndChar

StartChar: x
Encoding: 120 120 119
Width: 436
VWidth: 0
Flags: HMW
LayerCount: 2
Fore
SplineSet
23 0 m 0
 194 232 l 0
 68 440 l 0
 150 440 l 0
 238 288 l 0
 345 440 l 0
 433 440 l 0
 274 231 l 0
 413 0 l 0
 331 0 l 0
 232 170 l 0
 108 0 l 0
 23 0 l 0
EndSplineSet
EndChar

StartChar: y
Encoding: 121 121 120
Width: 485
VWidth: 0
Flags: HMW
LayerCount: 2
Fore
SplineSet
406 -49 m 0
 396 -233 202 -245 102 -214 c 0
 106 -153 l 0
 251 -187 332 -157 341 3 c 0
 344 61 l 0
 304 10 262 -12 207 -12 c 0
 84 -12 77 92 82 163 c 0
 90 314 l 0
 94 367 92 402 88 440 c 0
 154 440 l 0
 158 415 162 376 158 315 c 0
 149 151 l 0
 146 85 163 53 215 53 c 0
 282 53 347 120 353 230 c 0
 364 440 l 0
 432 440 l 0
 406 -49 l 0
EndSplineSet
EndChar

StartChar: z
Encoding: 122 122 121
Width: 389
VWidth: 0
Flags: HMW
LayerCount: 2
Fore
SplineSet
361 8 m 0
 334 -5 82 1 28 4 c 0
 33 66 l 0
 283 383 l 0
 68 383 l 0
 71 440 l 0
 380 440 l 0
 376 388 l 0
 120 65 l 0
 200 72 285 51 365 72 c 0
 361 8 l 0
EndSplineSet
EndChar

StartChar: braceleft
Encoding: 123 123 122
Width: 242
VWidth: 0
Flags: HMW
LayerCount: 2
Fore
SplineSet
135 630 m 0
 182 630 l 0
 190 554 329 522 384 630 c 0
 428 630 l 0
 390 440 140 464 135 630 c 0
EndSplineSet
EndChar

StartChar: bar
Encoding: 124 124 123
Width: 242
VWidth: 0
Flags: HMW
LayerCount: 2
Fore
SplineSet
130 530 m 0
 134 590 l 0
 420 590 l 0
 415 530 l 0
 130 530 l 0
EndSplineSet
EndChar

StartChar: braceright
Encoding: 125 125 124
Width: 242
VWidth: 0
Flags: HMW
LayerCount: 2
Fore
SplineSet
316 504 m 0
 402 630 l 0
 510 630 l 0
 375 504 l 0
 316 504 l 0
184 504 m 0
 270 630 l 0
 378 630 l 0
 243 504 l 0
 184 504 l 0
EndSplineSet
EndChar

StartChar: asciitilde
Encoding: 126 126 125
Width: 242
VWidth: 0
Flags: HMW
LayerCount: 2
Fore
SplineSet
204 563 m 0
 182 563 167 545 161 510 c 0
 116 510 l 0
 130 598 159 630 208 630 c 0
 262 630 290 588 337 588 c 0
 363 588 376 601 386 634 c 0
 429 634 l 0
 419 558 385 517 332 517 c 0
 280 517 246 563 204 563 c 0
EndSplineSet
EndChar

StartChar: uni007F
Encoding: 127 127 126
Width: 242
VWidth: 0
Flags: HMW
LayerCount: 2
Fore
SplineSet
418 630 m 0
 316 504 l 0
 204 504 l 0
 128 630 l 0
 181 630 l 0
 264 554 l 0
 365 630 l 0
 418 630 l 0
EndSplineSet
EndChar

StartChar: uni0080
Encoding: 128 128 127
Width: 299
VWidth: 0
Flags: HMW
LayerCount: 2
Fore
SplineSet
175 564 m 0
 167 556 121 524 119 522 c 0
 98 554 l 0
 106 558 174 604 186 621 c 0
 221 621 l 0
 201 249 l 0
 158 249 l 0
 175 564 l 0
EndSplineSet
EndChar

StartChar: uni0081
Encoding: 129 129 128
Width: 299
VWidth: 0
Flags: HMW
LayerCount: 2
Fore
SplineSet
32 285 m 0
 134 381 234 466 234 526 c 0
 234 609 121 624 84 522 c 0
 46 536 l 0
 77 664 281 663 281 528 c 0
 281 452 206 390 99 291 c 0
 267 291 l 0
 265 249 l 0
 30 249 l 0
 32 285 l 0
EndSplineSet
EndChar

StartChar: uni0082
Encoding: 130 130 129
Width: 299
VWidth: 0
Flags: HMW
LayerCount: 2
Fore
SplineSet
246 603 m 0
 286 562 281 472 201 443 c 0
 202 442 l 0
 285 427 280 316 239 273 c 0
 191 224 75 222 22 302 c 0
 54 330 l 0
 101 265 173 270 201 298 c 0
 222 320 233 370 202 401 c 0
 176 427 117 424 93 423 c 0
 95 465 l 0
 150 462 176 459 204 488 c 0
 225 510 233 549 210 572 c 0
 185 598 124 601 77 547 c 0
 52 579 l 0
 110 643 204 645 246 603 c 0
EndSplineSet
EndChar

StartChar: uni0083
Encoding: 131 131 130
Width: 299
VWidth: 0
Flags: HMW
LayerCount: 2
Fore
SplineSet
30 341 m 0
 32 380 l 0
 184 621 l 0
 233 621 l 0
 82 381 l 0
 200 381 l 0
 208 521 l 0
 251 521 l 0
 244 381 l 0
 287 381 l 0
 285 341 l 0
 242 341 l 0
 237 249 l 0
 193 249 l 0
 198 341 l 0
 30 341 l 0
EndSplineSet
EndChar

StartChar: uni0084
Encoding: 132 132 131
Width: 98
VWidth: 0
Flags: HMW
LayerCount: 2
Fore
SplineSet
-164 0 m 0
 244 621 l 0
 291 621 l 0
 -117 0 l 0
 -164 0 l 0
EndSplineSet
EndChar

StartChar: uni0088
Encoding: 136 136 135
Width: 805
VWidth: 0
Flags: HMW
LayerCount: 2
Fore
SplineSet
238 0 m 0
 650 621 l 0
 719 621 l 0
 306 0 l 0
 238 0 l 0
232 552 m 0
 191 511 187 409 220 376 c 0
 244 352 290 350 320 380 c 0
 356 416 367 515 332 550 c 0
 306 576 259 579 232 552 c 0
633 243 m 0
 592 202 588 100 621 67 c 0
 645 43 691 41 721 71 c 0
 757 107 768 206 733 241 c 0
 707 267 660 270 633 243 c 0
182 592 m 0
 235 645 328 643 377 594 c 0
 437 534 428 397 367 336 c 0
 316 285 225 283 175 333 c 0
 115 393 117 527 182 592 c 0
583 283 m 0
 636 336 729 334 778 285 c 0
 838 225 829 88 768 27 c 0
 717 -24 626 -26 576 24 c 0
 516 84 518 218 583 283 c 0
EndSplineSet
EndChar

StartChar: uni0089
Encoding: 137 137 136
Width: 256
VWidth: 0
Flags: HMW
LayerCount: 2
Fore
SplineSet
159 0 m 0
 91 0 l 0
 112 383 l 0
 35 383 l 0
 38 440 l 0
 115 440 l 0
 122 551 124 613 174 663 c 0
 224 713 303 708 349 668 c 0
 323 614 l 0
 305 636 252 646 222 616 c 0
 190 584 188 535 183 440 c 0
 274 440 l 0
 269 383 l 0
 180 383 l 0
 159 0 l 0
EndSplineSet
EndChar

StartChar: uni008A
Encoding: 138 138 137
Width: 330
VWidth: 0
Flags: HMW
LayerCount: 2
Fore
SplineSet
239 561 m 0
 199 600 135 600 95 561 c 0
 56 521 56 456 95 416 c 0
 135 377 199 377 239 416 c 0
 278 456 278 521 239 561 c 0
268 590 m 0
 325 534 325 443 268 387 c 0
 212 330 122 330 66 387 c 0
 9 443 9 534 66 590 c 0
 122 647 212 647 268 590 c 0
EndSplineSet
EndChar

StartChar: uni008B
Encoding: 139 139 138
Width: 258
VWidth: 0
Flags: HMW
LayerCount: 2
Fore
SplineSet
186 357 m 0
 208 336 208 301 186 280 c 0
 165 258 131 258 110 280 c 0
 88 301 88 336 110 357 c 0
 131 379 165 379 186 357 c 0
EndSplineSet
EndChar

StartChar: uni008C
Encoding: 140 140 139
Width: 219
VWidth: 0
Flags: HMW
LayerCount: 2
Fore
SplineSet
170 394 m 0
 204 361 204 306 170 273 c 0
 137 239 83 239 50 273 c 0
 16 306 16 361 50 394 c 0
 83 428 137 428 170 394 c 0
EndSplineSet
EndChar

StartChar: uni008D
Encoding: 141 141 140
Width: 258
VWidth: 0
Flags: HMW
LayerCount: 2
Fore
SplineSet
148 53 m 0
 55 226 l 0
 163 394 l 0
 237 394 l 0
 134 224 l 0
 218 53 l 0
 148 53 l 0
EndSplineSet
EndChar

StartChar: uni008E
Encoding: 142 142 141
Width: 258
VWidth: 0
Flags: HMW
LayerCount: 2
Fore
SplineSet
143 394 m 0
 235 220 l 0
 128 52 l 0
 55 52 l 0
 157 222 l 0
 74 394 l 0
 143 394 l 0
EndSplineSet
EndChar

StartChar: uni0091
Encoding: 145 145 144
Width: 500
VWidth: 0
Flags: HMW
LayerCount: 2
Fore
SplineSet
277 574 m 0
 86 574 75 280 259 280 c 0
 277 574 l 0
256 233 m 0
 205 233 158 247 122 283 c 0
 28 377 58 621 293 621 c 0
 530 621 l 0
 527 575 l 0
 474 575 l 0
 425 -231 l 0
 372 -231 l 0
 422 575 l 0
 329 575 l 0
 279 -231 l 0
 228 -231 l 0
 256 233 l 0
EndSplineSet
EndChar

StartChar: uni0092
Encoding: 146 146 145
Width: 500
VWidth: 0
Flags: HMW
LayerCount: 2
Fore
SplineSet
416 583 m 0
 480 519 462 432 419 0 c 0
 345 0 l 0
 377 295 l 0
 271 204 167 230 114 282 c 0
 40 356 49 497 124 572 c 0
 198 646 347 652 416 583 c 0
344 345 m 0
 387 388 401 493 357 537 c 0
 319 575 233 575 184 526 c 0
 131 473 126 378 172 332 c 0
 212 292 296 297 344 345 c 0
EndSplineSet
EndChar

StartChar: uni0093
Encoding: 147 147 146
Width: 500
VWidth: 0
Flags: HMW
LayerCount: 2
Fore
SplineSet
12 210 m 0
 12 286 l 0
 211 286 l 0
 211 492 l 0
 287 492 l 0
 287 286 l 0
 488 286 l 0
 488 210 l 0
 287 210 l 0
 287 -10 l 0
 211 -10 l 0
 211 210 l 0
 12 210 l 0
EndSplineSet
EndChar

StartChar: uni0094
Encoding: 148 148 147
Width: 500
VWidth: 0
Flags: HMW
LayerCount: 2
Fore
SplineSet
498 435 m 0
 306 243 l 0
 498 51 l 0
 443 -4 l 0
 251 188 l 0
 59 -4 l 0
 4 51 l 0
 196 243 l 0
 4 435 l 0
 59 490 l 0
 251 298 l 0
 443 490 l 0
 498 435 l 0
EndSplineSet
EndChar

StartChar: uni0095
Encoding: 149 149 148
Width: 500
VWidth: 0
Flags: HMW
LayerCount: 2
Fore
SplineSet
286 121 m 0
 306 101 306 69 286 49 c 0
 266 30 234 30 214 49 c 0
 194 69 194 101 214 121 c 0
 234 141 266 141 286 121 c 0
286 449 m 0
 306 429 306 397 286 377 c 0
 266 357 234 357 214 377 c 0
 194 397 194 429 214 449 c 0
 234 468 266 468 286 449 c 0
13 210 m 0
 13 286 l 0
 488 286 l 0
 488 210 l 0
 13 210 l 0
EndSplineSet
EndChar

StartChar: uni0096
Encoding: 150 150 149
Width: 500
VWidth: 0
Flags: HMW
LayerCount: 2
Fore
SplineSet
12 210 m 0
 12 286 l 0
 211 286 l 0
 211 492 l 0
 287 492 l 0
 287 286 l 0
 488 286 l 0
 488 210 l 0
 287 210 l 0
 287 4 l 0
 211 4 l 0
 211 210 l 0
 12 210 l 0
12 -110 m 0
 12 -34 l 0
 488 -34 l 0
 488 -110 l 0
 12 -110 l 0
EndSplineSet
EndChar

StartChar: uni0097
Encoding: 151 151 150
Width: 500
VWidth: 0
Flags: HMW
LayerCount: 2
Fore
SplineSet
27 196 m 0
 31 259 l 0
 500 259 l 0
 496 196 l 0
 27 196 l 0
EndSplineSet
EndChar

StartChar: uni0098
Encoding: 152 152 151
Width: 999
VWidth: 0
Flags: HMW
LayerCount: 2
Fore
SplineSet
17 196 m 0
 21 259 l 0
 1004 259 l 0
 1000 196 l 0
 17 196 l 0
EndSplineSet
EndChar

StartChar: uni0099
Encoding: 153 153 152
Width: 500
VWidth: 0
Flags: HMW
LayerCount: 2
Fore
SplineSet
12 210 m 0
 12 286 l 0
 488 286 l 0
 488 210 l 0
 12 210 l 0
EndSplineSet
EndChar

StartChar: uni009A
Encoding: 154 154 153
Width: 356
VWidth: 0
Flags: HMW
LayerCount: 2
Fore
SplineSet
141 -77 m 0
 182 687 l 0
 377 687 l 0
 373 630 l 0
 248 630 l 0
 213 -20 l 0
 337 -20 l 0
 334 -77 l 0
 141 -77 l 0
EndSplineSet
EndChar

StartChar: uni009B
Encoding: 155 155 154
Width: 355
VWidth: 0
Flags: HMW
LayerCount: 2
Fore
SplineSet
247 687 m 0
 206 -77 l 0
 11 -77 l 0
 15 -20 l 0
 140 -20 l 0
 175 630 l 0
 51 630 l 0
 54 687 l 0
 247 687 l 0
EndSplineSet
EndChar

StartChar: uni009C
Encoding: 156 156 155
Width: 499
VWidth: 0
Flags: HMW
LayerCount: 2
Fore
SplineSet
469 220 m 0
 465 153 l 0
 382 154 l 0
 373 0 l 0
 305 0 l 0
 313 153 l 0
 81 153 l 0
 109 621 l 0
 183 621 l 0
 160 220 l 0
 317 220 l 0
 329 441 l 0
 396 441 l 0
 385 220 l 0
 469 220 l 0
EndSplineSet
EndChar

StartChar: uni009D
Encoding: 157 157 156
Width: 451
VWidth: 0
Flags: HMW
LayerCount: 2
Fore
SplineSet
283 44 m 0
 153 232 l 0
 140 0 l 0
 72 0 l 0
 109 689 l 0
 177 689 l 0
 155 279 l 0
 337 440 l 0
 443 440 l 0
 225 253 l 0
 339 89 l 0
 379 32 411 60 435 75 c 0
 433 18 l 0
 382 -24 325 -17 283 44 c 0
EndSplineSet
EndChar

StartChar: uni009E
Encoding: 158 158 157
Width: 270
VWidth: 0
Flags: HMW
LayerCount: 2
Fore
SplineSet
279 683 m 0
 277 637 l 0
 268 637 250 637 250 637 c 0
 218 637 200 610 199 581 c 0
 197 557 205 478 204 448 c 0
 201 389 180 345 108 311 c 0
 183 274 194 234 189 153 c 0
 188 134 173 64 170 24 c 0
 166 -12 192 -33 218 -33 c 0
 242 -33 l 0
 239 -78 l 0
 205 -78 l 0
 172 -78 139 -67 120 -49 c 0
 104 -35 92 -7 97 26 c 0
 99 47 117 129 119 176 c 0
 123 241 101 282 59 294 c 0
 61 326 l 0
 103 338 128 379 131 441 c 0
 135 512 124 555 125 571 c 0
 129 646 174 683 249 683 c 0
 279 683 l 0
EndSplineSet
EndChar

StartChar: uni009F
Encoding: 159 159 158
Width: 270
VWidth: 0
Flags: HMW
LayerCount: 2
Fore
SplineSet
239 329 m 0
 237 298 l 0
 194 284 168 244 165 179 c 0
 162 134 172 52 171 29 c 0
 167 -44 111 -75 53 -75 c 0
 18 -75 l 0
 20 -31 l 0
 56 -31 l 0
 82 -31 97 -11 98 26 c 0
 99 33 91 107 93 156 c 0
 97 235 109 281 190 314 c 0
 123 349 106 393 109 452 c 0
 110 469 128 567 129 584 c 0
 130 617 114 640 90 640 c 0
 90 640 62 641 57 640 c 0
 59 685 l 0
 64 686 94 685 94 685 c 0
 170 685 205 645 201 574 c 0
 200 548 185 508 181 444 c 0
 178 381 199 342 239 329 c 0
EndSplineSet
EndChar

StartChar: uni00A0
Encoding: 160 160 159
Width: 743
VWidth: 0
Flags: HMW
LayerCount: 2
Fore
SplineSet
404 214 m 0
 442 252 447 294 465 428 c 0
 427 460 378 452 344 418 c 0
 287 361 275 247 315 207 c 0
 340 182 378 188 404 214 c 0
141 553 m 0
 279 691 505 684 625 564 c 0
 734 455 745 269 660 184 c 0
 585 109 467 128 446 206 c 0
 407 136 314 111 257 168 c 0
 202 223 207 354 291 438 c 0
 343 490 422 506 470 469 c 0
 474 489 l 0
 538 489 l 0
 503 248 l 0
 491 167 577 164 621 208 c 0
 692 279 684 433 590 527 c 0
 480 637 299 631 189 521 c 0
 74 406 79 216 193 102 c 0
 291 4 458 -16 583 71 c 0
 602 38 l 0
 505 -53 274 -66 138 70 c 0
 11 197 2 414 141 553 c 0
EndSplineSet
EndChar

StartChar: exclamdown
Encoding: 161 161 160
Width: 628
VWidth: 0
Flags: HMW
LayerCount: 2
Fore
SplineSet
380 548 m 0
 341 587 237 578 237 499 c 0
 237 469 249 440 293 381 c 0
 400 434 420 508 380 548 c 0
227 345 m 0
 183 405 160 458 160 500 c 0
 160 648 371 660 441 590 c 0
 506 525 479 401 330 330 c 0
 367 278 407 227 449 176 c 0
 471 199 522 255 551 305 c 0
 604 261 l 0
 573 215 534 164 492 125 c 0
 521 90 568 30 602 0 c 0
 505 0 l 0
 482 25 459 50 439 75 c 0
 324 -27 169 -38 97 34 c 0
 34 97 1 256 227 345 c 0
266 294 m 0
 129 241 97 142 154 85 c 0
 208 31 321 52 396 127 c 0
 346 184 309 242 266 294 c 0
EndSplineSet
EndChar

StartChar: cent
Encoding: 162 162 161
Width: 500
VWidth: 0
Flags: HMW
LayerCount: 2
Fore
SplineSet
265 536 m 0
 128 236 l 0
 51 236 l 0
 226 621 l 0
 303 621 l 0
 478 236 l 0
 401 236 l 0
 265 536 l 0
EndSplineSet
EndChar

StartChar: sterling
Encoding: 163 163 162
Width: 150
VWidth: 0
Flags: HMW
LayerCount: 2
Fore
SplineSet
55 0 m 0
 55 621 l 0
 97 621 l 0
 97 0 l 0
 55 0 l 0
EndSplineSet
EndChar

StartChar: currency
Encoding: 164 164 163
Width: 150
VWidth: 0
Flags: HMW
LayerCount: 2
Fore
SplineSet
55 0 m 0
 55 253 l 0
 97 253 l 0
 97 0 l 0
 55 0 l 0
55 368 m 0
 55 621 l 0
 97 621 l 0
 97 368 l 0
 55 368 l 0
EndSplineSet
EndChar

StartChar: yen
Encoding: 165 165 164
Width: 500
VWidth: 0
Flags: HMW
LayerCount: 2
Fore
SplineSet
412 284 m 0
 12 284 l 0
 12 360 l 0
 488 360 l 0
 488 89 l 0
 412 89 l 0
 412 284 l 0
EndSplineSet
EndChar

StartChar: brokenbar
Encoding: 166 166 165
Width: 721
VWidth: 0
Flags: HMW
LayerCount: 2
Fore
SplineSet
261 150 m 0
 181 230 191 378 254 441 c 0
 332 519 502 510 516 356 c 0
 458 356 l 0
 451 453 352 459 304 411 c 0
 247 354 259 231 301 189 c 0
 351 139 441 148 460 243 c 0
 516 243 l 0
 492 84 330 81 261 150 c 0
568 521 m 0
 454 638 268 638 154 521 c 0
 39 404 39 216 154 99 c 0
 268 -17 454 -17 568 99 c 0
 683 216 683 404 568 521 c 0
600 554 m 0
 734 420 734 203 600 69 c 0
 467 -64 251 -64 118 69 c 0
 -15 203 -15 420 118 554 c 0
 251 688 467 688 600 554 c 0
EndSplineSet
EndChar

StartChar: section
Encoding: 167 167 166
Width: 720
VWidth: 0
Flags: HMW
LayerCount: 2
Fore
SplineSet
568 521 m 0
 454 638 268 638 154 521 c 0
 39 404 39 216 154 99 c 0
 268 -17 454 -17 568 99 c 0
 683 216 683 404 568 521 c 0
600 554 m 0
 734 420 734 203 600 69 c 0
 467 -64 251 -64 118 69 c 0
 -15 203 -15 420 118 554 c 0
 251 688 467 688 600 554 c 0
385 438 m 0
 304 438 l 0
 304 339 l 0
 366 339 l 0
 452 339 455 438 385 438 c 0
423 312 m 0
 482 296 451 243 495 138 c 0
 437 138 l 0
 406 206 431 292 361 292 c 0
 304 292 l 0
 304 138 l 0
 253 138 l 0
 253 485 l 0
 391 485 l 0
 513 485 528 346 423 312 c 0
EndSplineSet
EndChar

StartChar: dieresis
Encoding: 168 168 167
Width: 596
VWidth: 0
Flags: HMW
LayerCount: 2
Fore
SplineSet
119 310 m 0
 119 584 l 0
 29 584 l 0
 29 621 l 0
 254 621 l 0
 254 584 l 0
 166 584 l 0
 166 310 l 0
 119 310 l 0
274 310 m 0
 274 621 l 0
 356 621 l 0
 423 400 l 0
 494 621 l 0
 572 621 l 0
 572 310 l 0
 529 310 l 0
 529 592 l 0
 438 310 l 0
 409 310 l 0
 317 595 l 0
 317 310 l 0
 274 310 l 0
EndSplineSet
EndChar

StartChar: copyright
Encoding: 169 169 168
Width: 431
VWidth: 0
Flags: HMW
LayerCount: 2
Fore
SplineSet
136 346 m 0
 78 399 78 533 146 595 c 0
 209 652 312 640 354 602 c 0
 422 540 402 403 344 350 c 0
 290 301 188 300 136 346 c 0
188 569 m 0
 141 527 136 414 177 376 c 0
 207 349 268 349 303 380 c 0
 350 423 357 533 316 570 c 0
 286 597 222 599 188 569 c 0
78 277 m 0
 381 277 l 0
 381 235 l 0
 78 235 l 0
 78 277 l 0
EndSplineSet
EndChar

StartChar: ordfeminine
Encoding: 170 170 169
Width: 440
VWidth: 0
Flags: HMW
LayerCount: 2
Fore
SplineSet
265 385 m 0
 303 422 307 471 312 580 c 0
 285 591 227 594 190 558 c 0
 141 510 137 406 169 375 c 0
 189 356 233 354 265 385 c 0
150 589 m 0
 207 644 305 641 363 618 c 0
 352 408 l 0
 348 344 379 348 403 363 c 0
 401 331 l 0
 392 321 377 315 358 315 c 0
 325 315 303 337 303 372 c 0
 254 300 176 297 129 343 c 0
 80 390 85 526 150 589 c 0
85 277 m 0
 388 277 l 0
 388 235 l 0
 85 235 l 0
 85 277 l 0
EndSplineSet
EndChar

StartChar: guillemotleft
Encoding: 171 171 170
Width: 499
VWidth: 0
Flags: HMW
LayerCount: 2
Fore
SplineSet
484 433 m 0
 474 368 l 0
 396 368 l 0
 376 251 l 0
 454 251 l 0
 444 186 l 0
 365 186 l 0
 331 -13 l 0
 261 -13 l 0
 296 186 l 0
 185 186 l 0
 152 -13 l 0
 83 -13 l 0
 118 186 l 0
 37 186 l 0
 49 251 l 0
 128 251 l 0
 149 368 l 0
 69 368 l 0
 80 433 l 0
 159 433 l 0
 190 613 l 0
 259 613 l 0
 228 433 l 0
 337 433 l 0
 368 613 l 0
 438 613 l 0
 407 433 l 0
 484 433 l 0
327 368 m 0
 217 368 l 0
 197 251 l 0
 307 251 l 0
 327 368 l 0
EndSplineSet
EndChar

StartChar: logicalnot
Encoding: 172 172 171
Width: 477
VWidth: 0
Flags: HMW
LayerCount: 2
Fore
SplineSet
378 86 m 0
 410 118 l 0
 442 86 l 0
 410 54 l 0
 378 86 l 0
378 392 m 0
 410 424 l 0
 442 392 l 0
 410 360 l 0
 378 392 l 0
73 392 m 0
 105 424 l 0
 137 392 l 0
 105 360 l 0
 73 392 l 0
73 86 m 0
 105 118 l 0
 137 86 l 0
 105 54 l 0
 73 86 l 0
126 370 m 0
 188 432 326 432 388 370 c 0
 450 308 449 169 388 108 c 0
 326 46 188 46 126 108 c 0
 65 169 63 307 126 370 c 0
165 331 m 0
 124 290 121 192 165 148 c 0
 209 104 304 102 350 148 c 0
 390 188 396 285 350 331 c 0
 305 376 209 375 165 331 c 0
EndSplineSet
EndChar

StartChar: uni00AD
Encoding: 173 173 172
Width: 500
VWidth: 0
Flags: HMW
LayerCount: 2
Fore
SplineSet
202 339 m 0
 50 621 l 0
 128 621 l 0
 269 354 l 0
 436 621 l 0
 518 621 l 0
 333 339 l 0
 468 339 l 0
 465 285 l 0
 302 285 l 0
 298 218 l 0
 461 218 l 0
 458 164 l 0
 296 164 l 0
 287 0 l 0
 212 0 l 0
 221 164 l 0
 61 164 l 0
 64 218 l 0
 223 218 l 0
 227 285 l 0
 67 285 l 0
 70 339 l 0
 202 339 l 0
EndSplineSet
EndChar

StartChar: registered
Encoding: 174 174 173
Width: 500
VWidth: 0
Flags: HMW
LayerCount: 2
Fore
SplineSet
326 381 m 0
 176 362 169 140 222 86 c 0
 326 381 l 0
235 -4 m 0
 208 -80 l 0
 167 -65 l 0
 195 14 l 0
 84 81 94 295 196 397 c 0
 239 440 308 453 353 450 c 0
 377 517 l 0
 416 504 l 0
 395 446 l 0
 423 440 433 435 455 424 c 0
 451 355 l 0
 422 372 408 375 372 380 c 0
 259 62 l 0
 307 40 367 59 428 95 c 0
 423 23 l 0
 386 -4 291 -24 235 -4 c 0
EndSplineSet
EndChar

StartChar: macron
Encoding: 175 175 174
Width: 500
VWidth: 0
Flags: HMW
LayerCount: 2
Fore
SplineSet
289 266 m 0
 278 69 l 0
 398 83 398 222 289 266 c 0
247 370 m 0
 256 549 l 0
 255 549 l 0
 141 549 128 422 247 370 c 0
229 69 m 0
 241 287 l 0
 157 323 89 380 89 470 c 0
 89 530 131 613 261 619 c 0
 265 687 l 0
 312 687 l 0
 308 620 l 0
 359 616 411 605 458 582 c 0
 453 510 l 0
 399 537 348 549 304 551 c 0
 292 352 l 0
 394 303 446 252 446 170 c 0
 446 49 346 4 273 3 c 0
 269 -76 l 0
 221 -76 l 0
 226 1 l 0
 151 8 108 20 53 49 c 0
 56 124 l 0
 106 94 155 73 229 69 c 0
EndSplineSet
EndChar

StartChar: guillemotright
Encoding: 187 187 186
Width: 499
VWidth: 0
Flags: HMW
LayerCount: 2
Fore
SplineSet
487 26 m 0
 12 211 l 0
 12 279 l 0
 487 468 l 0
 487 387 l 0
 115 246 l 0
 487 107 l 0
 487 26 l 0
EndSplineSet
EndChar

StartChar: onequarter
Encoding: 188 188 187
Width: 499
VWidth: 0
Flags: HMW
LayerCount: 2
Fore
SplineSet
487 211 m 0
 11 26 l 0
 11 107 l 0
 384 246 l 0
 11 387 l 0
 11 468 l 0
 487 279 l 0
 487 211 l 0
EndSplineSet
EndChar

StartChar: onehalf
Encoding: 189 189 188
Width: 500
VWidth: 0
Flags: HMW
LayerCount: 2
Fore
SplineSet
129 11 m 0
 119 -58 110 -111 89 -172 c 0
 27 -165 l 0
 49 -94 73 11 81 150 c 0
 89 295 l 0
 93 368 92 400 87 440 c 0
 156 440 l 0
 162 404 161 370 157 299 c 0
 150 163 l 0
 145 75 175 51 220 51 c 0
 288 51 348 136 352 199 c 0
 365 440 l 0
 433 440 l 0
 415 104 l 0
 412 44 455 34 498 67 c 0
 494 14 l 0
 429 -30 352 -10 348 65 c 0
 309 3 218 -42 129 11 c 0
EndSplineSet
EndChar

StartChar: threequarters
Encoding: 190 190 189
Width: 322
VWidth: 0
Flags: HMW
LayerCount: 2
Fore
SplineSet
45 -77 m 0
 241 687 l 0
 306 687 l 0
 110 -77 l 0
 45 -77 l 0
EndSplineSet
EndChar

StartChar: questiondown
Encoding: 191 191 190
Width: 322
VWidth: 0
Flags: HMW
LayerCount: 2
Fore
SplineSet
306 -77 m 0
 241 -77 l 0
 45 687 l 0
 110 687 l 0
 306 -77 l 0
EndSplineSet
EndChar

StartChar: Agrave
Encoding: 192 192 191
Width: 806
VWidth: 0
Flags: HMW
LayerCount: 2
Fore
SplineSet
302 350 m 0
 451 350 l 0
 425 559 l 0
 302 350 l 0
497 0 m 0
 459 281 l 0
 264 281 l 0
 98 0 l 0
 16 0 l 0
 387 621 l 0
 785 621 l 0
 781 552 l 0
 498 552 l 0
 524 350 l 0
 746 350 l 0
 742 281 l 0
 534 281 l 0
 561 69 l 0
 756 69 l 0
 752 0 l 0
 497 0 l 0
EndSplineSet
EndChar

StartChar: Aacute
Encoding: 193 193 192
Width: 871
VWidth: 0
Flags: HMW
LayerCount: 2
Fore
SplineSet
486 0 m 0
 490 73 l 0
 406 -35 228 -39 136 53 c 0
 31 158 40 445 154 559 c 0
 248 653 426 661 515 548 c 0
 519 621 l 0
 855 621 l 0
 851 552 l 0
 590 552 l 0
 580 350 l 0
 816 350 l 0
 812 281 l 0
 576 281 l 0
 565 69 l 0
 826 69 l 0
 822 0 l 0
 486 0 l 0
214 517 m 0
 118 421 120 171 195 96 c 0
 256 35 370 40 430 100 c 0
 527 197 524 441 446 519 c 0
 382 583 271 574 214 517 c 0
EndSplineSet
EndChar

StartChar: Acircumflex
Encoding: 194 194 193
Width: 613
VWidth: 0
Flags: HMW
LayerCount: 2
Fore
SplineSet
163 67 m 0
 261 56 357 68 415 126 c 0
 505 216 519 410 433 496 c 0
 362 567 242 558 189 554 c 0
 179 357 l 0
 304 357 l 0
 301 288 l 0
 175 288 l 0
 163 67 l 0
37 357 m 0
 103 357 l 0
 117 620 l 0
 267 628 406 631 494 543 c 0
 601 436 594 201 476 83 c 0
 382 -11 244 -13 84 1 c 0
 99 288 l 0
 34 288 l 0
 37 357 l 0
EndSplineSet
EndChar

StartChar: Atilde
Encoding: 195 195 194
Width: 515
VWidth: 0
Flags: HMW
LayerCount: 2
Fore
SplineSet
439 248 m 0
 381 190 293 180 167 188 c 0
 157 0 l 0
 82 0 l 0
 115 621 l 0
 190 621 l 0
 185 530 l 0
 270 532 374 533 437 470 c 0
 495 412 496 303 439 248 c 0
375 290 m 0
 408 323 413 389 373 429 c 0
 335 467 230 466 181 461 c 0
 170 256 l 0
 237 249 331 246 375 290 c 0
EndSplineSet
EndChar

StartChar: Aring
Encoding: 197 197 195
Width: 612
VWidth: 0
Flags: HMW
LayerCount: 2
Fore
SplineSet
174 347 m 0
 476 347 l 0
 485 517 l 0
 183 517 l 0
 174 347 l 0
60 517 m 0
 61 547 l 0
 109 547 l 0
 113 621 l 0
 188 621 l 0
 184 547 l 0
 487 547 l 0
 491 621 l 0
 566 621 l 0
 562 547 l 0
 610 547 l 0
 609 517 l 0
 560 517 l 0
 533 0 l 0
 458 0 l 0
 473 278 l 0
 170 278 l 0
 155 0 l 0
 80 0 l 0
 108 517 l 0
 60 517 l 0
EndSplineSet
EndChar

StartChar: AE
Encoding: 198 198 196
Width: 467
VWidth: 0
Flags: HMW
LayerCount: 2
Fore
SplineSet
33 294 m 0
 98 319 l 0
 114 621 l 0
 189 621 l 0
 174 340 l 0
 326 398 l 0
 322 336 l 0
 170 278 l 0
 160 69 l 0
 423 69 l 0
 419 0 l 0
 81 0 l 0
 94 257 l 0
 29 232 l 0
 33 294 l 0
EndSplineSet
EndChar

StartChar: Ccedilla
Encoding: 199 199 197
Width: 644
VWidth: 0
Flags: HMW
LayerCount: 2
Fore
SplineSet
126 89 m 0
 55 205 63 451 171 559 c 0
 266 654 437 654 523 567 c 0
 593 651 l 0
 631 621 l 0
 552 526 l 0
 621 419 619 173 505 59 c 0
 416 -30 247 -37 157 51 c 0
 91 -28 l 0
 56 3 l 0
 126 89 l 0
204 107 m 0
 257 38 382 35 448 101 c 0
 527 180 540 353 499 462 c 0
 204 107 l 0
179 153 m 0
 474 508 l 0
 414 581 294 580 231 517 c 0
 147 433 143 246 179 153 c 0
EndSplineSet
EndChar

StartChar: Egrave
Encoding: 200 200 198
Width: 483
VWidth: 0
Flags: HMW
LayerCount: 2
Fore
SplineSet
227 405 m 0
 163 405 l 0
 166 462 l 0
 230 462 l 0
 235 552 l 0
 57 552 l 0
 60 621 l 0
 490 621 l 0
 486 552 l 0
 310 552 l 0
 305 462 l 0
 369 462 l 0
 366 405 l 0
 302 405 l 0
 281 0 l 0
 206 0 l 0
 227 405 l 0
EndSplineSet
EndChar

StartChar: Ecircumflex
Encoding: 202 202 199
Width: 564
VWidth: 0
Flags: HMW
LayerCount: 2
Fore
SplineSet
321 -12 m 0
 313 -44 l 0
 401 -45 425 -127 381 -171 c 0
 327 -225 223 -208 177 -189 c 0
 191 -138 l 0
 348 -210 385 -65 282 -87 c 0
 259 -57 l 0
 273 -8 l 0
 227 -2 182 23 149 56 c 0
 49 156 50 434 169 553 c 0
 280 664 482 663 556 513 c 0
 495 477 l 0
 445 576 310 593 230 513 c 0
 136 419 133 180 214 99 c 0
 277 36 402 40 486 145 c 0
 531 96 l 0
 475 30 403 -12 321 -12 c 0
EndSplineSet
EndChar

StartChar: Edieresis
Encoding: 203 203 200
Width: 595
VWidth: 0
Flags: HMW
LayerCount: 2
Fore
SplineSet
252 -10 m 0
 217 -5 171 12 135 48 c 0
 31 152 29 429 153 553 c 0
 264 664 478 657 544 534 c 0
 490 492 l 0
 432 586 291 590 215 514 c 0
 119 418 113 177 194 96 c 0
 257 33 360 47 422 109 c 0
 453 140 456 192 459 254 c 0
 352 254 l 0
 355 323 l 0
 538 323 l 0
 517 -74 l 0
 447 -74 l 0
 453 56 l 0
 414 13 356 -9 302 -11 c 0
 293 -44 l 0
 381 -45 405 -127 361 -171 c 0
 307 -225 203 -208 157 -189 c 0
 171 -138 l 0
 328 -210 365 -65 262 -87 c 0
 239 -57 l 0
 252 -10 l 0
EndSplineSet
EndChar

StartChar: Eth
Encoding: 208 208 205
Width: 467
VWidth: 0
Flags: HMW
LayerCount: 2
Fore
SplineSet
173 -8 m 0
 127 -1 85 14 42 38 c 0
 50 115 l 0
 232 3 338 72 338 155 c 0
 338 283 81 296 81 476 c 0
 81 641 277 666 434 592 c 0
 426 517 l 0
 266 599 162 558 162 480 c 0
 162 358 418 342 418 161 c 0
 418 42 317 -14 221 -12 c 0
 213 -44 l 0
 301 -45 325 -127 281 -171 c 0
 227 -225 123 -208 77 -189 c 0
 91 -138 l 0
 248 -210 285 -65 182 -87 c 0
 159 -57 l 0
 173 -8 l 0
EndSplineSet
EndChar

StartChar: Ntilde
Encoding: 209 209 206
Width: 483
VWidth: 0
Flags: HMW
LayerCount: 2
Fore
SplineSet
281 0 m 0
 264 0 l 0
 253 -44 l 0
 341 -45 365 -127 321 -171 c 0
 267 -225 163 -208 117 -189 c 0
 131 -138 l 0
 288 -210 325 -65 222 -87 c 0
 199 -57 l 0
 215 0 l 0
 206 0 l 0
 235 552 l 0
 57 552 l 0
 60 621 l 0
 490 621 l 0
 486 552 l 0
 310 552 l 0
 281 0 l 0
EndSplineSet
EndChar

StartChar: Ograve
Encoding: 210 210 207
Width: 242
VWidth: 0
Flags: HMW
LayerCount: 2
Fore
SplineSet
249 -171 m 0
 195 -225 91 -208 45 -189 c 0
 59 -138 l 0
 216 -210 253 -65 150 -87 c 0
 127 -57 l 0
 149 20 l 0
 197 20 l 0
 181 -44 l 0
 269 -45 293 -127 249 -171 c 0
EndSplineSet
EndChar

StartChar: Oacute
Encoding: 211 211 208
Width: 598
VWidth: 0
Flags: HMW
LayerCount: 2
Fore
SplineSet
220 271 m 0
 413 271 l 0
 329 521 l 0
 220 271 l 0
579 0 m 0
 571 0 l 0
 481 -74 530 -163 597 -89 c 0
 626 -115 l 0
 584 -183 515 -184 483 -152 c 0
 442 -111 457 -50 513 0 c 0
 503 0 l 0
 434 206 l 0
 190 206 l 0
 98 0 l 0
 19 0 l 0
 299 621 l 0
 373 621 l 0
 579 0 l 0
EndSplineSet
EndChar

StartChar: Ocircumflex
Encoding: 212 212 209
Width: 469
VWidth: 0
Flags: HMW
LayerCount: 2
Fore
SplineSet
84 0 m 0
 117 621 l 0
 453 621 l 0
 449 552 l 0
 188 552 l 0
 178 350 l 0
 414 350 l 0
 410 281 l 0
 174 281 l 0
 163 69 l 0
 424 69 l 0
 420 0 l 0
 348 0 l 0
 258 -74 307 -163 374 -89 c 0
 403 -115 l 0
 361 -183 292 -184 260 -152 c 0
 219 -111 234 -50 290 0 c 0
 84 0 l 0
EndSplineSet
EndChar

StartChar: Otilde
Encoding: 213 213 210
Width: 242
VWidth: 0
Flags: HMW
LayerCount: 2
Fore
SplineSet
158 0 m 0
 148 0 l 0
 58 -74 107 -163 174 -89 c 0
 203 -115 l 0
 161 -183 92 -184 60 -152 c 0
 19 -111 34 -50 90 0 c 0
 83 0 l 0
 116 621 l 0
 191 621 l 0
 158 0 l 0
EndSplineSet
EndChar

StartChar: Odieresis
Encoding: 214 214 211
Width: 612
VWidth: 0
Flags: HMW
LayerCount: 2
Fore
SplineSet
338 -11 m 0
 264 -73 307 -163 374 -89 c 0
 403 -115 l 0
 361 -183 292 -184 260 -152 c 0
 219 -111 236 -55 278 -11 c 0
 235 -6 189 7 156 40 c 0
 105 91 89 175 94 264 c 0
 113 621 l 0
 188 621 l 0
 170 282 l 0
 162 130 198 55 311 55 c 0
 437 55 466 166 471 266 c 0
 490 621 l 0
 565 621 l 0
 547 282 l 0
 543 198 529 105 466 42 c 0
 433 9 384 -6 338 -11 c 0
EndSplineSet
EndChar

StartChar: Oslash
Encoding: 216 216 212
Width: 700
VWidth: 0
Flags: HMW
LayerCount: 2
Fore
SplineSet
508 0 m 0
 525 311 l 0
 692 311 l 0
 690 276 l 0
 560 276 l 0
 555 175 l 0
 672 175 l 0
 670 141 l 0
 553 141 l 0
 546 0 l 0
 508 0 l 0
275 0 m 0
 292 311 l 0
 459 311 l 0
 457 276 l 0
 327 276 l 0
 322 175 l 0
 439 175 l 0
 437 141 l 0
 320 141 l 0
 313 0 l 0
 275 0 l 0
42 0 m 0
 59 311 l 0
 227 311 l 0
 225 276 l 0
 94 276 l 0
 89 175 l 0
 207 175 l 0
 205 141 l 0
 87 141 l 0
 82 35 l 0
 212 35 l 0
 210 0 l 0
 42 0 l 0
EndSplineSet
EndChar

StartChar: Udieresis
Encoding: 220 220 213
Width: 259
VWidth: 0
Flags: HMW
LayerCount: 2
Fore
SplineSet
114 363 m 0
 95 383 95 418 114 438 c 0
 134 457 166 457 186 438 c 0
 205 418 205 383 186 363 c 0
 166 343 134 343 114 363 c 0
169 267 m 0
 158 -228 l 0
 77 -228 l 0
 113 267 l 0
 169 267 l 0
EndSplineSet
EndChar

StartChar: Yacute
Encoding: 221 221 214
Width: 210
VWidth: 0
Flags: HMW
LayerCount: 2
Fore
SplineSet
72 -44 m 0
 98 440 l 0
 166 440 l 0
 140 -44 l 0
 129 -253 -32 -243 -81 -223 c 0
 -78 -164 l 0
 -17 -185 64 -171 72 -44 c 0
EndSplineSet
EndChar

StartChar: Thorn
Encoding: 222 222 215
Width: 451
VWidth: 0
Flags: HMW
LayerCount: 2
Fore
SplineSet
283 44 m 0
 153 232 l 0
 140 0 l 0
 72 0 l 0
 96 440 l 0
 164 440 l 0
 155 279 l 0
 337 440 l 0
 443 440 l 0
 225 253 l 0
 339 89 l 0
 379 32 411 60 435 75 c 0
 433 18 l 0
 382 -24 325 -17 283 44 c 0
EndSplineSet
EndChar

StartChar: germandbls
Encoding: 223 223 216
Width: 531
VWidth: 0
Flags: HMW
LayerCount: 2
Fore
SplineSet
335 606 m 0
 299 642 229 639 200 581 c 0
 142 465 219 -64 99 -184 c 0
 42 -241 -40 -239 -79 -222 c 0
 -76 -163 l 0
 -45 -171 10 -177 49 -138 c 0
 99 -88 98 55 109 383 c 0
 38 383 l 0
 41 440 l 0
 111 440 l 0
 112 549 123 604 167 648 c 0
 218 699 328 711 386 653 c 0
 455 584 432 475 404 405 c 0
 367 394 345 378 345 349 c 0
 345 262 509 270 509 129 c 0
 509 -19 339 -37 234 13 c 0
 237 84 l 0
 316 23 436 46 436 121 c 0
 436 218 272 217 272 341 c 0
 272 393 297 427 352 450 c 0
 370 492 367 574 335 606 c 0
EndSplineSet
EndChar

StartChar: agrave
Encoding: 224 224 217
Width: 742
VWidth: 0
Flags: HMW
LayerCount: 2
Fore
SplineSet
635 326 m 0
 635 420 468 408 436 241 c 0
 516 229 635 251 635 326 c 0
302 92 m 0
 356 146 361 216 369 372 c 0
 331 389 251 393 199 341 c 0
 130 272 125 123 170 78 c 0
 197 51 258 48 302 92 c 0
376 105 m 0
 299 -39 179 -34 113 32 c 0
 45 100 52 295 143 386 c 0
 222 465 359 460 440 427 c 0
 438 393 l 0
 508 463 622 466 675 413 c 0
 725 363 717 282 672 237 c 0
 604 169 476 173 434 177 c 0
 439 41 562 16 670 97 c 0
 667 28 l 0
 594 -21 432 -54 376 105 c 0
EndSplineSet
EndChar

StartChar: aacute
Encoding: 225 225 218
Width: 758
VWidth: 0
Flags: HMW
LayerCount: 2
Fore
SplineSet
648 327 m 0
 648 421 483 408 451 241 c 0
 531 229 648 252 648 327 c 0
406 63 m 0
 331 -35 187 -29 119 37 c 0
 43 113 44 304 132 394 c 0
 214 476 375 470 428 367 c 0
 504 471 635 467 688 414 c 0
 738 364 730 282 685 237 c 0
 617 169 491 173 449 177 c 0
 454 41 575 17 683 98 c 0
 680 29 l 0
 599 -29 465 -32 406 63 c 0
187 356 m 0
 126 295 119 135 173 81 c 0
 212 42 287 39 332 84 c 0
 394 146 403 306 349 360 c 0
 310 399 231 400 187 356 c 0
EndSplineSet
EndChar

StartChar: acircumflex
Encoding: 226 226 219
Width: 500
VWidth: 0
Flags: HMW
LayerCount: 2
Fore
SplineSet
189 355 m 0
 128 294 121 134 175 80 c 0
 214 41 291 40 336 85 c 0
 398 147 407 303 353 357 c 0
 314 396 233 399 189 355 c 0
340 566 m 0
 496 377 484 136 390 42 c 0
 319 -29 189 -30 121 36 c 0
 45 112 46 303 134 393 c 0
 189 448 276 461 339 440 c 0
 320 478 301 512 271 545 c 0
 140 507 l 0
 120 559 l 0
 227 590 l 0
 205 610 183 628 156 645 c 0
 196 689 l 0
 236 667 270 641 299 611 c 0
 428 649 l 0
 448 597 l 0
 340 566 l 0
EndSplineSet
EndChar

StartChar: atilde
Encoding: 227 227 220
Width: 500
VWidth: 0
Flags: HMW
LayerCount: 2
Fore
SplineSet
179 689 m 0
 163 381 l 0
 235 471 352 466 410 408 c 0
 486 332 466 129 378 41 c 0
 312 -25 199 -28 144 27 c 0
 130 -227 l 0
 62 -227 l 0
 111 689 l 0
 179 689 l 0
321 85 m 0
 387 151 409 303 351 361 c 0
 320 392 250 389 208 347 c 0
 158 297 154 228 147 96 c 0
 191 35 265 29 321 85 c 0
EndSplineSet
EndChar

StartChar: aring
Encoding: 229 229 221
Width: 500
VWidth: 0
Flags: HMW
LayerCount: 2
Fore
SplineSet
107 689 m 0
 175 689 l 0
 168 550 l 0
 312 550 l 0
 309 500 l 0
 165 500 l 0
 158 369 l 0
 205 430 242 450 299 450 c 0
 379 450 427 399 421 283 c 0
 412 113 l 0
 408 47 447 35 496 68 c 0
 493 16 l 0
 471 -1 448 -9 422 -9 c 0
 355 -9 341 50 344 109 c 0
 353 275 l 0
 357 341 338 380 291 380 c 0
 216 380 155 313 148 186 c 0
 138 0 l 0
 70 0 l 0
 97 500 l 0
 49 500 l 0
 52 550 l 0
 100 550 l 0
 107 689 l 0
EndSplineSet
EndChar

StartChar: ae
Encoding: 230 230 222
Width: 226
VWidth: 0
Flags: HMW
LayerCount: 2
Fore
SplineSet
145 129 m 0
 140 33 181 34 228 66 c 0
 225 13 l 0
 203 -2 184 -9 161 -9 c 0
 80 -9 73 60 77 129 c 0
 87 312 l 0
 29 293 l 0
 32 353 l 0
 90 372 l 0
 107 689 l 0
 175 689 l 0
 159 393 l 0
 236 419 l 0
 233 359 l 0
 156 334 l 0
 145 129 l 0
EndSplineSet
EndChar

StartChar: ccedilla
Encoding: 231 231 223
Width: 500
VWidth: 0
Flags: HMW
LayerCount: 2
Fore
SplineSet
123 34 m 0
 68 -27 l 0
 37 5 l 0
 96 70 l 0
 54 140 46 304 134 394 c 0
 216 476 349 458 402 405 c 0
 454 462 l 0
 485 433 l 0
 429 370 l 0
 480 284 466 118 390 42 c 0
 319 -29 191 -29 123 34 c 0
378 315 m 0
 171 85 l 0
 208 39 291 40 336 85 c 0
 398 147 395 275 378 315 c 0
355 355 m 0
 314 399 233 400 189 356 c 0
 132 299 131 175 149 128 c 0
 355 355 l 0
EndSplineSet
EndChar

StartChar: egrave
Encoding: 232 232 224
Width: 321
VWidth: 0
Flags: HMW
LayerCount: 2
Fore
SplineSet
171 326 m 0
 299 326 l 0
 294 269 l 0
 168 269 l 0
 160 131 l 0
 154 32 222 32 292 80 c 0
 289 17 l 0
 263 -3 235 -12 203 -12 c 0
 92 -12 89 72 92 126 c 0
 99 269 l 0
 44 269 l 0
 47 326 l 0
 102 326 l 0
 105 383 l 0
 50 383 l 0
 53 440 l 0
 109 440 l 0
 115 551 l 0
 183 551 l 0
 177 440 l 0
 305 440 l 0
 300 383 l 0
 174 383 l 0
 171 326 l 0
EndSplineSet
EndChar

StartChar: ecircumflex
Encoding: 234 234 225
Width: 403
VWidth: 0
Flags: HMW
LayerCount: 2
Fore
SplineSet
376 23 m 0
 335 -3 291 -12 247 -12 c 0
 239 -44 l 0
 327 -45 351 -127 307 -171 c 0
 253 -225 149 -208 103 -189 c 0
 117 -138 l 0
 274 -210 311 -65 208 -87 c 0
 185 -57 l 0
 199 -7 l 0
 168 -1 144 13 120 36 c 0
 47 109 47 294 149 396 c 0
 215 462 337 460 401 428 c 0
 392 360 l 0
 335 386 254 396 200 342 c 0
 131 273 128 133 180 81 c 0
 225 36 303 45 381 95 c 0
 376 23 l 0
EndSplineSet
EndChar

StartChar: eth
Encoding: 240 240 231
Width: 371
VWidth: 0
Flags: HMW
LayerCount: 2
Fore
SplineSet
141 -10 m 0
 103 -5 71 5 45 23 c 0
 48 94 l 0
 127 33 257 33 257 108 c 0
 257 191 71 209 71 333 c 0
 71 454 230 477 335 422 c 0
 328 356 l 0
 237 405 144 398 144 337 c 0
 144 264 330 247 330 114 c 0
 330 20 248 -10 189 -12 c 0
 181 -44 l 0
 269 -45 293 -127 249 -171 c 0
 195 -225 91 -208 45 -189 c 0
 59 -138 l 0
 216 -210 253 -65 150 -87 c 0
 127 -57 l 0
 141 -10 l 0
EndSplineSet
EndChar

StartChar: ntilde
Encoding: 241 241 232
Width: 321
VWidth: 0
Flags: HMW
LayerCount: 2
Fore
SplineSet
154 -5 m 0
 87 21 89 72 92 126 c 0
 105 383 l 0
 50 383 l 0
 53 440 l 0
 109 440 l 0
 115 551 l 0
 183 551 l 0
 177 440 l 0
 305 440 l 0
 300 383 l 0
 174 383 l 0
 160 131 l 0
 154 32 222 32 292 80 c 0
 289 17 l 0
 263 -3 235 -12 201 -12 c 0
 193 -44 l 0
 281 -45 305 -127 261 -171 c 0
 207 -225 103 -208 57 -189 c 0
 71 -138 l 0
 228 -210 265 -65 162 -87 c 0
 139 -57 l 0
 154 -5 l 0
EndSplineSet
EndChar

StartChar: ograve
Encoding: 242 242 233
Width: 242
VWidth: 0
Flags: HMW
LayerCount: 2
Fore
SplineSet
52 -152 m 0
 -5 -95 47 7 168 46 c 0
 190 8 l 0
 28 -56 101 -171 166 -89 c 0
 195 -115 l 0
 153 -183 84 -184 52 -152 c 0
EndSplineSet
EndChar

StartChar: oacute
Encoding: 243 243 234
Width: 502
VWidth: 0
Flags: HMW
LayerCount: 2
Fore
SplineSet
303 92 m 0
 357 146 362 216 370 372 c 0
 332 389 252 393 200 341 c 0
 131 272 126 123 171 78 c 0
 198 51 259 48 303 92 c 0
451 -8 m 0
 377 -74 417 -163 486 -89 c 0
 515 -115 l 0
 473 -183 404 -184 372 -152 c 0
 331 -111 347 -49 400 -2 c 0
 374 10 357 36 357 73 c 0
 288 -31 180 -34 114 32 c 0
 46 100 53 295 144 386 c 0
 223 465 360 460 441 427 c 0
 425 125 l 0
 420 33 463 39 497 61 c 0
 494 14 l 0
 482 0 465 -5 451 -8 c 0
EndSplineSet
EndChar

StartChar: ocircumflex
Encoding: 244 244 235
Width: 438
VWidth: 0
Flags: HMW
LayerCount: 2
Fore
SplineSet
341 326 m 0
 341 420 174 408 142 241 c 0
 222 229 341 251 341 326 c 0
373 28 m 0
 345 9 306 -6 273 -10 c 0
 195 -86 251 -157 310 -89 c 0
 339 -115 l 0
 297 -183 228 -184 196 -152 c 0
 155 -111 172 -52 215 -11 c 0
 179 -6 145 9 119 35 c 0
 47 107 43 292 144 393 c 0
 214 463 328 466 381 413 c 0
 431 363 423 282 378 237 c 0
 310 169 182 173 140 177 c 0
 145 41 268 16 376 97 c 0
 373 28 l 0
EndSplineSet
EndChar

StartChar: otilde
Encoding: 245 245 236
Width: 225
VWidth: 0
Flags: HMW
LayerCount: 2
Fore
SplineSet
161 606 m 0
 179 588 178 560 161 543 c 0
 143 525 114 526 97 543 c 0
 80 560 79 588 97 606 c 0
 116 625 142 625 161 606 c 0
162 -9 m 0
 88 -75 131 -163 198 -89 c 0
 227 -115 l 0
 185 -183 116 -184 84 -152 c 0
 43 -111 58 -50 113 0 c 0
 80 16 68 60 72 129 c 0
 89 440 l 0
 157 440 l 0
 140 129 l 0
 135 33 178 32 225 68 c 0
 222 14 l 0
 204 3 184 -9 162 -9 c 0
EndSplineSet
EndChar

StartChar: odieresis
Encoding: 246 246 237
Width: 500
VWidth: 0
Flags: HMW
LayerCount: 2
Fore
SplineSet
456 -4 m 0
 372 -74 419 -163 486 -89 c 0
 515 -115 l 0
 473 -183 404 -184 372 -152 c 0
 331 -111 346 -53 398 -5 c 0
 365 10 355 24 349 65 c 0
 312 13 266 -12 211 -12 c 0
 119 -13 75 48 81 150 c 0
 89 295 l 0
 93 368 92 400 87 440 c 0
 156 440 l 0
 162 404 161 370 157 299 c 0
 150 163 l 0
 145 75 175 51 220 51 c 0
 288 51 349 136 353 199 c 0
 366 440 l 0
 434 440 l 0
 416 104 l 0
 413 44 456 34 499 67 c 0
 495 14 l 0
 482 5 469 0 456 -4 c 0
EndSplineSet
EndChar

StartChar: uacute
Encoding: 250 250 238
Width: 516
VWidth: 0
Flags: HMW
LayerCount: 2
Fore
SplineSet
381 444 m 0
 384 500 l 0
 273 500 l 0
 275 550 l 0
 387 550 l 0
 394 689 l 0
 462 689 l 0
 455 550 l 0
 503 550 l 0
 500 500 l 0
 452 500 l 0
 431 125 l 0
 426 33 471 39 505 61 c 0
 502 14 l 0
 490 0 466 -9 440 -9 c 0
 394 -9 363 23 363 73 c 0
 294 -31 178 -34 112 32 c 0
 44 100 51 295 142 386 c 0
 191 435 286 462 381 444 c 0
376 372 m 0
 338 389 250 393 198 341 c 0
 129 272 124 123 169 78 c 0
 196 51 265 48 309 92 c 0
 363 146 368 216 376 372 c 0
EndSplineSet
EndChar

StartChar: ucircumflex
Encoding: 251 251 239
Width: 500
VWidth: 0
Flags: HMW
LayerCount: 2
Fore
SplineSet
271 5 m 0
 256 -181 136 -259 -12 -217 c 0
 -8 -155 l 0
 59 -179 187 -176 200 -6 c 0
 219 252 l 0
 119 252 l 0
 124 313 l 0
 223 313 l 0
 236 491 239 536 292 589 c 0
 340 637 437 648 501 603 c 0
 491 535 l 0
 445 573 371 569 337 535 c 0
 309 507 305 451 295 313 c 0
 426 313 l 0
 422 252 l 0
 291 252 l 0
 271 5 l 0
EndSplineSet
EndChar

StartChar: udieresis
Encoding: 252 252 240
Width: 370
VWidth: 0
Flags: HMW
LayerCount: 2
Fore
SplineSet
212 363 m 0
 193 383 193 418 212 438 c 0
 231 457 263 457 281 438 c 0
 300 418 300 383 281 363 c 0
 263 343 231 343 212 363 c 0
82 -181 m 0
 5 -99 20 115 199 136 c 0
 206 267 l 0
 274 267 l 0
 265 66 l 0
 235 69 183 73 144 32 c 0
 102 -12 107 -94 141 -130 c 0
 183 -175 260 -163 325 -122 c 0
 332 -195 l 0
 251 -243 141 -243 82 -181 c 0
EndSplineSet
EndChar

StartChar: yacute
Encoding: 253 253 241
Width: 225
VWidth: 0
Flags: HMW
LayerCount: 2
Fore
SplineSet
222 14 m 0
 200 -2 179 -9 156 -9 c 0
 75 -9 68 60 72 129 c 0
 89 440 l 0
 157 440 l 0
 140 129 l 0
 135 33 178 32 225 68 c 0
 222 14 l 0
EndSplineSet
EndChar

StartChar: thorn
Encoding: 254 254 242
Width: 483
VWidth: 0
Flags: HMW
LayerCount: 2
Fore
SplineSet
479 14 m 0
 457 -2 436 -9 413 -9 c 0
 332 -9 325 60 329 129 c 0
 346 440 l 0
 414 440 l 0
 397 129 l 0
 392 33 435 32 482 68 c 0
 479 14 l 0
50 -138 m 0
 100 -88 99 55 110 383 c 0
 39 383 l 0
 42 440 l 0
 112 440 l 0
 113 549 118 602 162 646 c 0
 224 707 358 707 422 645 c 0
 419 568 l 0
 343 650 246 638 216 608 c 0
 178 570 180 523 180 440 c 0
 271 440 l 0
 265 383 l 0
 179 383 l 0
 172 32 162 -122 100 -184 c 0
 43 -241 -38 -239 -77 -222 c 0
 -74 -163 l 0
 -43 -171 11 -177 50 -138 c 0
EndSplineSet
EndChar

StartChar: ydieresis
Encoding: 255 255 243
Width: 500
VWidth: 0
Flags: HMW
LayerCount: 2
Fore
SplineSet
373 657 m 0
 375 689 l 0
 443 689 l 0
 413 129 l 0
 408 33 449 34 496 66 c 0
 493 13 l 0
 471 -2 452 -9 429 -9 c 0
 348 -9 341 60 345 129 c 0
 370 583 l 0
 316 641 246 638 216 608 c 0
 184 576 180 503 180 440 c 0
 270 440 l 0
 265 383 l 0
 179 383 l 0
 172 32 162 -122 100 -184 c 0
 43 -241 -37 -239 -76 -222 c 0
 -73 -163 l 0
 -42 -171 11 -177 50 -138 c 0
 100 -88 99 55 110 383 c 0
 39 383 l 0
 42 440 l 0
 112 440 l 0
 113 549 122 610 166 654 c 0
 216 704 299 704 373 657 c 0
EndSplineSet
EndChar

StartChar: uni0199
Encoding: 409 409 379
Width: 563
VWidth: 0
Flags: HMW
LayerCount: 2
Fore
SplineSet
103 40 m 0
 13 129 40 314 194 336 c 0
 194 338 l 0
 93 389 80 502 151 573 c 0
 224 646 376 641 458 610 c 0
 444 546 l 0
 384 568 251 576 207 532 c 0
 168 493 171 434 212 393 c 0
 254 351 316 349 500 349 c 0
 478 -66 l 0
 414 -66 l 0
 422 77 l 0
 353 -28 183 -40 103 40 c 0
245 56 m 0
 359 56 434 149 438 294 c 0
 261 294 204 294 160 250 c 0
 100 190 125 56 245 56 c 0
EndSplineSet
EndChar

StartChar: uni019A
Encoding: 410 410 380
Width: 500
VWidth: 0
Flags: HMW
LayerCount: 2
Fore
SplineSet
201 343 m 0
 143 285 116 133 170 79 c 0
 203 46 268 43 324 99 c 0
 363 138 369 188 379 379 c 0
 326 396 250 392 201 343 c 0
402 -238 m 0
 346 -227 l 0
 362 58 l 0
 277 -35 172 -26 117 29 c 0
 36 110 61 302 146 387 c 0
 218 459 338 463 450 432 c 0
 419 -138 l 0
 493 -66 l 0
 535 -108 l 0
 402 -238 l 0
EndSplineSet
EndChar

